<?xml version="1.0" encoding="utf-8"?><svg width="224" height="193" viewBox="0 0 224 193" xmlns="http://www.w3.org/2000/svg" xmlns:xlink="http://www.w3.org/1999/xlink"><view id="adlsGen2" viewBox="125 96 32 32"/><svg width="32" height="32" viewBox="0 0 32 32" fill="none" x="125" y="96" xmlns="http://www.w3.org/2000/svg">
<g clip-path="url(#aaclip0_1_16)">
<path d="M31.246 5.836H17.3C17.1509 5.84121 17.0046 5.79456 16.886 5.704L12.894 3.05C12.7685 2.97616 12.6256 2.93715 12.48 2.937H0.753C0.556541 2.93694 0.367836 3.01366 0.227155 3.15079C0.0864739 3.28792 0.00495713 3.4746 0 3.671L0 28.329C0.00495713 28.5254 0.0864739 28.7121 0.227155 28.8492C0.367836 28.9863 0.556541 29.0631 0.753 29.063H31.246C31.4426 29.0633 31.6316 28.9867 31.7725 28.8496C31.9134 28.7124 31.995 28.5256 32 28.329V6.589C32.0003 6.49004 31.981 6.39201 31.9432 6.30053C31.9055 6.20905 31.85 6.12594 31.78 6.05596C31.7101 5.98599 31.627 5.93053 31.5355 5.89278C31.444 5.85503 31.346 5.83574 31.247 5.836H31.246Z" fill="#005BA1"/>
<path d="M9.882 4.367H3.219C3.13943 4.367 3.06313 4.39861 3.00687 4.45487C2.95061 4.51113 2.919 4.58744 2.919 4.667V5.514C2.919 5.59357 2.95061 5.66987 3.00687 5.72613C3.06313 5.78239 3.13943 5.814 3.219 5.814H9.882C9.96156 5.814 10.0379 5.78239 10.0941 5.72613C10.1504 5.66987 10.182 5.59357 10.182 5.514V4.669C10.1823 4.62944 10.1747 4.59021 10.1597 4.55358C10.1448 4.51695 10.1227 4.48364 10.0948 4.45557C10.067 4.4275 10.0338 4.40523 9.99727 4.39003C9.96074 4.37483 9.92157 4.367 9.882 4.367V4.367Z" fill="white"/>
<path d="M4.16 4.367H3.125C3.09773 4.367 3.07073 4.37239 3.04555 4.38285C3.02037 4.39332 2.99751 4.40865 2.97827 4.42798C2.95904 4.44731 2.94381 4.47025 2.93347 4.49548C2.92313 4.52071 2.91787 4.54773 2.918 4.575V5.61C2.918 5.6649 2.93981 5.71755 2.97863 5.75637C3.01745 5.79519 3.0701 5.817 3.125 5.817H4.16C4.2149 5.817 4.26755 5.79519 4.30637 5.75637C4.34519 5.71755 4.367 5.6649 4.367 5.61V4.575C4.367 4.52001 4.34522 4.46725 4.30643 4.42827C4.26764 4.3893 4.21499 4.36726 4.16 4.367Z" fill="#1AC3F2"/>
<path d="M31.246 5.8H16C15.9009 5.79678 15.8023 5.8152 15.711 5.854C15.6199 5.89344 15.5383 5.95211 15.472 6.026L12.931 8.471C12.786 8.60123 12.5989 8.67473 12.404 8.678H0.753C0.553292 8.678 0.361763 8.75733 0.220549 8.89855C0.0793337 9.03976 0 9.23129 0 9.431L0 28.254C0.00495713 28.4504 0.0864739 28.6371 0.227155 28.7742C0.367836 28.9113 0.556541 28.9881 0.753 28.988H31.246C31.4426 28.9883 31.6316 28.9117 31.7725 28.7746C31.9134 28.6374 31.995 28.4506 32 28.254V6.588C32.0049 6.48593 31.9893 6.3839 31.954 6.288C31.9182 6.19235 31.8635 6.10494 31.793 6.03104C31.7225 5.95713 31.6378 5.89827 31.544 5.858C31.4497 5.81831 31.3483 5.79856 31.246 5.8V5.8Z" fill="url(#aapaint0_linear_1_16)"/>
<path d="M18.221 9.788C18.1715 9.77513 18.1195 9.77513 18.07 9.788C18.0215 9.78858 17.9739 9.80088 17.9313 9.82387C17.8886 9.84686 17.8521 9.87984 17.825 9.92L11.877 18.56C11.8507 18.6056 11.8368 18.6573 11.8368 18.71C11.8368 18.7627 11.8507 18.8144 11.877 18.86C11.905 18.9124 11.9455 18.9571 11.995 18.99C12.0442 19.023 12.101 19.043 12.16 19.048H15.68L14.117 24.281C14.1017 24.3122 14.0929 24.3463 14.091 24.381C14.0897 24.4152 14.0955 24.4492 14.108 24.481C14.1201 24.5132 14.1392 24.5422 14.164 24.566C14.1881 24.5902 14.2171 24.6089 14.249 24.621C14.2915 24.637 14.3385 24.637 14.381 24.621C14.4308 24.6312 14.4827 24.6236 14.5274 24.5994C14.5722 24.5753 14.6071 24.5362 14.626 24.489L20.762 15.718V15.529C20.7569 15.4476 20.721 15.3713 20.6615 15.3155C20.602 15.2598 20.5235 15.2288 20.442 15.229H16.677L18.2 10.09C18.2363 10.0489 18.2578 9.99677 18.261 9.942C18.2654 9.88763 18.2513 9.83336 18.221 9.788Z" fill="white"/>
</g>
<defs>
<linearGradient id="aapaint0_linear_1_16" x1="16.45" y1="0.866" x2="15.716" y2="30.155" gradientUnits="userSpaceOnUse">
<stop stop-color="#32D4F5"/>
<stop offset="0.23" stop-color="#31D0F1"/>
<stop offset="0.46" stop-color="#2CC3E6"/>
<stop offset="0.7" stop-color="#25AFD4"/>
<stop offset="0.94" stop-color="#1C92BA"/>
<stop offset="1" stop-color="#198AB3"/>
</linearGradient>
<clipPath id="aaclip0_1_16">
<rect width="32" height="32" fill="white"/>
</clipPath>
</defs>
</svg><view id="amazonS3" viewBox="157 96 32 32"/><svg width="32" height="32" viewBox="0 0 32 32" fill="none" x="157" y="96" xmlns="http://www.w3.org/2000/svg">
<g clip-path="url(#abclip0_1_2)">
<path d="M32 0H0V32H32V0Z" fill="url(#abpaint0_linear_1_2)"/>
<path d="M26.21 17.092C26.086 16.422 25.327 15.949 24.81 15.612C24.644 15.505 24.187 15.334 24.149 15.185C24.1463 15.078 24.1609 14.9714 24.192 14.869L24.618 11.802C24.742 10.902 24.862 10.002 24.985 9.102C25.0314 8.73294 24.9644 8.35851 24.7929 8.02843C24.6215 7.69835 24.3536 7.42825 24.025 7.254C22.5649 6.38159 20.9332 5.83574 19.242 5.654C17.2142 5.32312 15.1521 5.25589 13.107 5.454C11.2675 5.58879 9.46206 6.02107 7.761 6.734C6.844 7.159 5.649 7.825 5.8 8.99C6.227 12.454 6.731 15.91 7.2 19.371C7.41333 20.9543 7.62667 22.537 7.84 24.119C7.87377 24.4266 7.98794 24.7199 8.17104 24.9693C8.35413 25.2187 8.59968 25.4156 8.883 25.54C10.2781 26.1822 11.7863 26.5424 13.321 26.6C15.2835 26.7777 17.2609 26.6903 19.2 26.34C20.429 26.114 22.716 25.74 22.912 24.207C23.155 22.307 23.424 20.401 23.68 18.507L23.774 17.927C24.469 18.086 26.453 18.441 26.21 17.092ZM15.381 6.187C18.0643 6.06421 20.7371 6.59726 23.168 7.74C23.522 7.94 24.346 8.375 24.098 8.896C23.85 9.417 23.083 9.677 22.613 9.865C21.943 10.1122 21.2541 10.3048 20.553 10.441C17.5072 11.0442 14.3792 11.1088 11.311 10.632C9.92547 10.4896 8.57765 10.0951 7.334 9.468C7.027 9.293 6.519 8.977 6.66 8.559C6.77063 8.33474 6.94443 8.14773 7.16 8.021C8.09836 7.41794 9.14187 6.99694 10.236 6.78C11.9207 6.37511 13.6483 6.17599 15.381 6.187V6.187ZM22.071 24.171C22.007 24.671 21.184 24.917 20.791 25.058C19.9764 25.3307 19.136 25.5194 18.283 25.621C16.3897 25.873 14.4713 25.873 12.578 25.621C11.3927 25.5306 10.2349 25.2182 9.165 24.7C9.01946 24.6368 8.89444 24.5342 8.80399 24.4039C8.71355 24.2735 8.66125 24.1205 8.653 23.962C8.226 20.579 7.74 17.195 7.283 13.812L6.783 10.143C7.75417 10.6765 8.80769 11.0439 9.9 11.23C11.0696 11.4679 12.2546 11.6233 13.446 11.695C15.784 11.8622 18.1338 11.7318 20.439 11.307C21.6661 11.1295 22.8515 10.7336 23.939 10.138L23.034 16.838C20.8718 16.126 18.7595 15.2708 16.711 14.278C16.6211 14.2441 16.5342 14.203 16.451 14.155C16.335 14.069 16.365 14.112 16.31 13.98C16.2465 13.7432 16.1228 13.5269 15.951 13.352C15.829 13.2547 15.6852 13.1884 15.532 13.159C15.3782 13.1296 15.2196 13.1382 15.0699 13.1841C14.9202 13.2299 14.784 13.3116 14.673 13.422C14.5622 13.5323 14.4801 13.6681 14.4339 13.8175C14.3877 13.9669 14.3788 14.1254 14.408 14.279C14.4369 14.4325 14.5028 14.5767 14.6 14.699C14.6974 14.8213 14.8232 14.918 14.9665 14.9807C15.1097 15.0434 15.266 15.0703 15.422 15.059C15.5693 15.035 15.7128 14.992 15.849 14.931C16.015 14.88 16.015 14.888 16.19 14.969C18.2683 15.982 20.4093 16.8608 22.6 17.6C22.929 17.706 22.925 17.6 22.925 17.873C22.911 18.0805 22.8839 18.2869 22.844 18.491L22.57 20.527L22.071 24.171ZM15.488 14.08C15.488 14.195 15.326 14.18 15.283 14.11C15.24 14.04 15.488 13.918 15.488 14.08ZM23.893 17.067L24.021 16.124C24.448 16.367 25.173 16.734 25.365 17.224C24.8692 17.307 24.3601 17.2527 23.893 17.067V17.067Z" fill="white"/>
</g>
<defs>
<linearGradient id="abpaint0_linear_1_2" x1="-6.626" y1="38.626" x2="38.626" y2="-6.627" gradientUnits="userSpaceOnUse">
<stop stop-color="#1B660F"/>
<stop offset="1" stop-color="#6CAE3E"/>
</linearGradient>
<clipPath id="abclip0_1_2">
<rect width="32" height="32" fill="white"/>
</clipPath>
</defs>
</svg><view id="analyze" viewBox="192 96 25 25"/><svg width="25" height="25" viewBox="0 0 25 25" fill="none" x="192" y="96" xmlns="http://www.w3.org/2000/svg">
<g clip-path="url(#acclip0_7508_91)">
<path d="M14.235 24.8428L15.38 23.6153V20.3403H9.67499V23.6153L10.82 24.8428C10.8873 24.9253 10.9824 24.9804 11.0875 24.9978H13.9125C13.9741 24.9959 14.0346 24.9811 14.0901 24.9544C14.1456 24.9277 14.195 24.8897 14.235 24.8428Z" fill="url(#acpaint0_linear_7508_91)"/>
<path d="M12.5 0.997948C10.2946 0.976621 8.17105 1.83178 6.59593 3.37549C5.02082 4.91919 4.12307 7.02512 4.09998 9.23045C4.09703 9.57874 4.1154 9.92689 4.15498 10.2729C4.53748 13.7604 7.85498 15.3829 8.79998 19.8029C8.83506 19.9538 8.91955 20.0887 9.04003 20.1861C9.16052 20.2834 9.31008 20.3378 9.46498 20.3404H15.535C15.6896 20.3377 15.8388 20.2832 15.9588 20.1858C16.0789 20.0884 16.1629 19.9536 16.1975 19.8029C17.145 15.3829 20.4325 13.7604 20.8425 10.2729C21.0973 8.08262 20.4716 5.88077 19.1031 4.15171C17.7346 2.42266 15.7353 1.30801 13.545 1.05295C13.1981 1.01344 12.8491 0.995071 12.5 0.997948Z" fill="url(#acpaint1_radial_7508_91)"/>
<path d="M15.9725 5.64307C15.4508 5.66134 14.9576 5.88539 14.6006 6.26625C14.2436 6.64711 14.0519 7.1538 14.0675 7.67557V8.76307H11.0875V7.67557C11.0962 7.14851 10.8965 6.6393 10.5318 6.25869C10.1671 5.87808 9.66692 5.65683 9.13996 5.64307H9.09746C8.57579 5.66134 8.08256 5.88539 7.72559 6.26625C7.36862 6.64711 7.17695 7.1538 7.19246 7.67557C7.17947 8.1981 7.37155 8.70496 7.7276 9.08764C8.08364 9.47031 8.57535 9.6984 9.09746 9.72307H9.99996V18.1931C9.99996 18.328 10.0536 18.4574 10.149 18.5528C10.2444 18.6482 10.3738 18.7018 10.5087 18.7018C10.6436 18.7018 10.773 18.6482 10.8685 18.5528C10.9639 18.4574 11.0175 18.328 11.0175 18.1931V9.72307H14.0675V18.1931C14.0675 18.3277 14.1209 18.4567 14.2161 18.5519C14.3113 18.6471 14.4404 18.7006 14.575 18.7006C14.7096 18.7006 14.8386 18.6471 14.9338 18.5519C15.029 18.4567 15.0825 18.3277 15.0825 18.1931V9.72307H15.9725C16.2319 9.71404 16.487 9.65396 16.7231 9.54627C16.9593 9.43858 17.1719 9.28539 17.3489 9.09546C17.5258 8.90553 17.6635 8.68258 17.7542 8.43938C17.8449 8.19617 17.8868 7.93747 17.8775 7.67807C17.8937 7.15587 17.7023 6.64854 17.3452 6.26714C16.9882 5.88573 16.4946 5.66133 15.9725 5.64307ZM9.99996 8.76307H9.03996C8.77053 8.74072 8.52018 8.61506 8.34126 8.41238C8.16234 8.2097 8.06871 7.94569 8.07996 7.67557C8.06871 7.40544 8.16234 7.14144 8.34126 6.93875C8.52018 6.73607 8.77053 6.61042 9.03996 6.58807C9.30963 6.60981 9.56035 6.73529 9.73939 6.93811C9.91843 7.14093 10.0118 7.40529 9.99996 7.67557V8.76307ZM16.0425 8.76307H15.0825V7.62057C15.0672 7.49466 15.0769 7.36698 15.111 7.24482C15.145 7.12266 15.2028 7.0084 15.2811 6.90858C15.3593 6.80876 15.4564 6.72532 15.5669 6.66303C15.6774 6.60075 15.7991 6.56083 15.925 6.54557C16.1792 6.51474 16.4353 6.58618 16.6369 6.74418C16.8385 6.90218 16.9691 7.13379 17 7.38807C17.0075 7.46539 17.0075 7.54325 17 7.62057C17.0302 7.89236 16.9513 8.16503 16.7807 8.37876C16.6101 8.59248 16.3617 8.72979 16.09 8.76057L16.0425 8.76307Z" fill="url(#acpaint2_linear_7508_91)"/>
<path d="M9.61993 22.5981L15.3799 21.4831V20.8481L9.61993 21.9781V22.5981Z" fill="#50E6FF"/>
<path d="M15.3799 23.0355V22.4155L9.61993 23.558V23.6155L10.0574 24.0955L15.3799 23.0355Z" fill="#50E6FF"/>
</g>
<defs>
<linearGradient id="acpaint0_linear_7508_91" x1="12.5275" y1="24.9978" x2="12.5275" y2="20.3403" gradientUnits="userSpaceOnUse">
<stop stop-color="#32D4F5"/>
<stop offset="0.27" stop-color="#31D1F2"/>
<stop offset="0.49" stop-color="#2EC7E9"/>
<stop offset="0.69" stop-color="#28B6DA"/>
<stop offset="0.88" stop-color="#209EC5"/>
<stop offset="1" stop-color="#198AB3"/>
</linearGradient>
<radialGradient id="acpaint1_radial_7508_91" cx="0" cy="0" r="1" gradientUnits="userSpaceOnUse" gradientTransform="translate(12.9687 10.3388) scale(9.06825)">
<stop stop-color="#0078D4"/>
<stop offset="0.26" stop-color="#0075CE"/>
<stop offset="0.59" stop-color="#006CBE"/>
<stop offset="0.97" stop-color="#005CA4"/>
<stop offset="1" stop-color="#005BA1"/>
</radialGradient>
<linearGradient id="acpaint2_linear_7508_91" x1="12.52" y1="5.81307" x2="12.605" y2="16.5131" gradientUnits="userSpaceOnUse">
<stop stop-color="#F2F2F2"/>
<stop offset="0.23" stop-color="#E6E6E6" stop-opacity="0.99"/>
<stop offset="0.37" stop-color="#D1D3D4" stop-opacity="0.95"/>
<stop offset="0.48" stop-color="#E7E5F0" stop-opacity="0.89"/>
<stop offset="0.58" stop-color="#DEDBEE" stop-opacity="0.81"/>
<stop offset="0.67" stop-color="#D3CEEB" stop-opacity="0.7"/>
<stop offset="0.76" stop-color="#C4BEE8" stop-opacity="0.57"/>
<stop offset="0.84" stop-color="#B4ABE5" stop-opacity="0.41"/>
<stop offset="0.92" stop-color="#A095E1" stop-opacity="0.22"/>
<stop offset="0.99" stop-color="#8B7DDC" stop-opacity="0.02"/>
<stop offset="1" stop-color="#897BDC" stop-opacity="0"/>
</linearGradient>
<clipPath id="acclip0_7508_91">
<rect width="24" height="24" fill="white" transform="translate(0.5 0.998047)"/>
</clipPath>
</defs>
</svg><view id="azure_data_studio" viewBox="80 173 18 18"/><svg id="adeff55a0e-074c-4bc7-942e-728d4de8564f" width="18" height="18" viewBox="0 0 18 18" x="80" y="173" xmlns="http://www.w3.org/2000/svg">
  <defs>
    <linearGradient id="ada1338456-1db8-4a71-a175-4bb84738e7bc" x1="11.957" y1="11.283" x2="11.957" y2="19.893" gradientTransform="matrix(1, 0, 0, -1, 0, 20)" gradientUnits="userSpaceOnUse">
      <stop offset="0" stop-color="#27b2d7"/>
      <stop offset="0.185" stop-color="#32c0e2"/>
      <stop offset="0.605" stop-color="#48dcf7"/>
      <stop offset="0.85" stop-color="#50e6ff"/>
    </linearGradient>
    <linearGradient id="adeddda330-16b5-42c6-a04c-151e2252873a" x1="0.107" y1="8.099" x2="10.569" y2="8.099" gradientTransform="matrix(1, 0, 0, -1, 0, 20)" gradientUnits="userSpaceOnUse">
      <stop offset="0" stop-color="#005ba1"/>
      <stop offset="0.068" stop-color="#0060a9"/>
      <stop offset="0.356" stop-color="#0071c8"/>
      <stop offset="0.517" stop-color="#0078d4"/>
      <stop offset="0.642" stop-color="#0074cd"/>
      <stop offset="0.82" stop-color="#006abb"/>
      <stop offset="1" stop-color="#005ba1"/>
    </linearGradient>
    <linearGradient id="adbca83579-0261-487c-8c40-9bd53a4fc880" x1="0.107" y1="7.378" x2="10.572" y2="7.378" gradientTransform="matrix(1, 0, 0, -1, 0, 20)" gradientUnits="userSpaceOnUse">
      <stop offset="0" stop-color="#b3b3b3"/>
      <stop offset="0.082" stop-color="silver"/>
      <stop offset="0.283" stop-color="#dcdcdc"/>
      <stop offset="0.401" stop-color="#e6e6e6"/>
      <stop offset="0.6" stop-color="#e6e6e6"/>
      <stop offset="1" stop-color="#b3b3b3"/>
    </linearGradient>
    <linearGradient id="adf450f7d4-a75d-474e-a924-10d84bae8dc0" x1="12.533" y1="2.107" x2="12.533" y2="10.379" gradientTransform="matrix(1, 0, 0, -1, 0, 20)" gradientUnits="userSpaceOnUse">
      <stop offset="0.049" stop-color="#27b2d7"/>
      <stop offset="0.305" stop-color="#31bfe1"/>
      <stop offset="0.773" stop-color="#4be0fa"/>
      <stop offset="0.85" stop-color="#50e6ff"/>
    </linearGradient>
  </defs>
  <path d="M15.578,3.4A3.4,3.4,0,0,0,12.115.107,3.478,3.478,0,0,0,8.8,2.409,3.212,3.212,0,0,0,6.02,5.54,3.262,3.262,0,0,0,9.363,8.716h5.852a2.759,2.759,0,0,0,2.678-2.7A2.706,2.706,0,0,0,15.578,3.4Z" fill="url(#ada1338456-1db8-4a71-a175-4bb84738e7bc)"/>
  <path d="M5.338,7.809c-2.889,0-5.231-.848-5.231-1.9V15.993c0,1.038,2.3,1.884,5.159,1.9h.072c2.889,0,5.231-.847,5.231-1.9V5.914C10.569,6.961,8.227,7.809,5.338,7.809Z" fill="url(#adeddda330-16b5-42c6-a04c-151e2252873a)"/>
  <path d="M10.569,5.914c0,1.047-2.342,1.9-5.231,1.9S.107,6.961.107,5.914,2.449,4.02,5.338,4.02s5.231.848,5.231,1.894" fill="#f2f2f2"/>
  <path d="M9.348,5.757c0,.666-1.8,1.205-4.01,1.205s-4.01-.535-4.01-1.2,1.8-1.2,4.01-1.2,4.01.54,4.01,1.2" fill="#50e6ff"/>
  <path d="M5.338,6.039A9.7,9.7,0,0,0,2.161,6.5a9.387,9.387,0,0,0,3.177.47A9.387,9.387,0,0,0,8.515,6.5,9.7,9.7,0,0,0,5.338,6.039Z" fill="#198ab3"/>
  <path d="M6.522,12.19H6.494l-.9,1.394L4.121,9.329l-1.446,2.64C1.14,11.64.107,11.038.107,10.345v1.047c0,.776,1.291,1.439,3.138,1.731h0L3.907,11.9l1.41,4.016,1.788-2.75c2.016-.264,3.467-.955,3.467-1.779V10.34C10.569,11.244,8.841,12,6.522,12.19Z" fill="url(#adbca83579-0261-487c-8c40-9bd53a4fc880)"/>
  <path d="M14,11.158l-.628-.386-.412-1.151h-.952l-.314,1.16-.657.283-1.119-.515-.657.683.553,1.081-.257.656-1.211.374V14.3l1.147.314.283.656-.5,1.108.682.67,1.069-.555.657.259.438,1.145h.942l.366-1.068.605-.347,1.046.463.67-.682-.476-.992.282-.643,1.162-.374v-.942L15.559,13l-.335-.592.451-1.056-.682-.657ZM11.57,14.8a1.371,1.371,0,0,1,1.919-1.958h0a1.371,1.371,0,0,1-1.909,1.968Z" fill="url(#adf450f7d4-a75d-474e-a924-10d84bae8dc0)"/>
</svg><view id="azure_devops" viewBox="117 144 20 20"/><svg width="20" height="20" viewBox="0 0 20 20" fill="none" x="117" y="144" xmlns="http://www.w3.org/2000/svg">
<path d="M17 4V13.74L13 17.02L6.8 14.76V17L3.29 12.41L13.52 13.21V4.44L17 4ZM13.59 4.49L7.85 1V3.29L2.58 4.84L1 6.87V11.48L3.26 12.48V6.57L13.59 4.49Z" fill="url(#aepaint0_linear_8382_29503)"/>
<defs>
<linearGradient id="aepaint0_linear_8382_29503" x1="9" y1="16.97" x2="9" y2="1.03" gradientUnits="userSpaceOnUse">
<stop stop-color="#0078D4"/>
<stop offset="0.16" stop-color="#1380DA"/>
<stop offset="0.53" stop-color="#3C91E5"/>
<stop offset="0.82" stop-color="#559CEC"/>
<stop offset="1" stop-color="#5EA0EF"/>
</linearGradient>
</defs>
</svg><view id="data_activator" viewBox="192 0 32 32"/><svg width="32" height="32" viewBox="0 0 32 32" fill="none" x="192" xmlns="http://www.w3.org/2000/svg">
<path d="M6.69703 10.522H15.976C18.585 10.522 20.764 12.341 21.322 14.778H29.944C29.323 7.61898 23.309 2.00098 15.977 2.00098H12.794C12.458 2.00098 12.154 2.13598 11.934 2.35598L5.83403 8.44598C5.61403 8.66598 5.47803 8.96998 5.47803 9.30598C5.47803 9.97798 6.02403 10.522 6.69703 10.522Z" fill="#73262F"/>
<path d="M6.69703 10.522H15.976C18.585 10.522 20.764 12.341 21.322 14.778H29.944C29.323 7.61898 23.309 2.00098 15.977 2.00098H12.794C12.458 2.00098 12.154 2.13598 11.934 2.35598L5.83403 8.44598C5.61403 8.66598 5.47803 8.96998 5.47803 9.30598C5.47803 9.97798 6.02403 10.522 6.69703 10.522Z" fill="url(#afpaint0_linear_38524_177898)"/>
<path d="M24.801 5.126C24.859 5.174 24.916 5.225 24.971 5.279C25.923 6.23 25.923 7.771 24.971 8.722L20.614 13.071C21.152 13.918 21.463 14.922 21.463 15.999C21.463 19.025 19.006 21.477 15.975 21.477C14.719 21.477 13.566 21.051 12.641 20.343L6.61804 26.424C9.10004 28.646 12.379 29.999 15.975 29.999C23.72 29.999 29.999 23.731 29.999 15.999C29.999 11.607 27.97 7.692 24.8 5.125L24.801 5.126Z" fill="url(#afpaint1_linear_38524_177898)"/>
<path d="M19.159 20.4449C17.344 21.7469 14.914 21.8109 13.04 20.6329L9.04896 24.6169C8.09696 25.5679 8.09696 27.1089 9.04896 28.0599C9.23896 28.2489 9.45196 28.4009 9.67896 28.5149C12.632 29.9919 15.998 30.3629 19.158 29.6269L19.159 20.4449Z" fill="url(#afpaint2_linear_38524_177898)"/>
<path d="M9.68 28.515C8.369 27.859 7.14 26.986 6.046 25.894C3.657 23.509 2.31 20.479 2.005 17.365C1.963 16.692 2.199 16.005 2.715 15.491C3.192 15.014 3.818 14.777 4.444 14.778H15.97C16.28 14.779 16.589 14.898 16.825 15.134C17.301 15.609 17.301 16.38 16.825 16.856L9.05 24.618C8.098 25.569 8.098 27.11 9.05 28.061C9.24 28.25 9.453 28.402 9.68 28.516V28.515Z" fill="url(#afpaint3_linear_38524_177898)"/>
<path d="M24.971 5.27998L24.966 5.27598C22.531 3.23898 19.402 2.00098 15.976 2.00098H15.328V10.522H15.976C17.928 10.522 19.639 11.541 20.611 13.075L20.614 13.072L24.971 8.72298C25.923 7.77198 25.923 6.23098 24.971 5.27998Z" fill="url(#afpaint4_linear_38524_177898)"/>
<defs>
<linearGradient id="afpaint0_linear_38524_177898" x1="8.54903" y1="3.65898" x2="29.409" y2="15.703" gradientUnits="userSpaceOnUse">
<stop offset="0.12" stop-color="#F0364C" stop-opacity="0.5"/>
<stop offset="0.261" stop-color="#F0364C" stop-opacity="0.454"/>
<stop offset="0.507" stop-color="#F0364C" stop-opacity="0.333"/>
<stop offset="0.65" stop-color="#F0364C" stop-opacity="0.25"/>
<stop offset="1" stop-color="#F0364C" stop-opacity="0"/>
</linearGradient>
<linearGradient id="afpaint1_linear_38524_177898" x1="5.52704" y1="23.425" x2="30.318" y2="14.402" gradientUnits="userSpaceOnUse">
<stop offset="0.166" stop-color="#920B18"/>
<stop offset="0.55" stop-color="#F0364C"/>
<stop offset="0.8" stop-color="#FF5C39"/>
</linearGradient>
<linearGradient id="afpaint2_linear_38524_177898" x1="9.16896" y1="22.0339" x2="19.526" y2="26.8639" gradientUnits="userSpaceOnUse">
<stop offset="0.114" stop-color="#6E0811" stop-opacity="0.75"/>
<stop offset="0.699" stop-color="#6E0811" stop-opacity="0"/>
</linearGradient>
<linearGradient id="afpaint3_linear_38524_177898" x1="2.21" y1="24.257" x2="15.409" y2="16.636" gradientUnits="userSpaceOnUse">
<stop stop-color="#920B18"/>
<stop offset="0.026" stop-color="#A41322"/>
<stop offset="0.074" stop-color="#BF1F31"/>
<stop offset="0.126" stop-color="#D5293D"/>
<stop offset="0.183" stop-color="#E43045"/>
<stop offset="0.25" stop-color="#ED344A"/>
<stop offset="0.35" stop-color="#F0364C"/>
<stop offset="0.75" stop-color="#FF5C39"/>
</linearGradient>
<linearGradient id="afpaint4_linear_38524_177898" x1="14.415" y1="3.08898" x2="23.391" y2="10.62" gradientUnits="userSpaceOnUse">
<stop offset="0.5" stop-color="#6E0811" stop-opacity="0"/>
<stop offset="0.581" stop-color="#6E0811" stop-opacity="0.093"/>
<stop offset="0.72" stop-color="#6E0811" stop-opacity="0.342"/>
<stop offset="0.899" stop-color="#6E0811" stop-opacity="0.744"/>
<stop offset="1" stop-color="#6E0811"/>
</linearGradient>
</defs>
</svg><view id="data_engineering" viewBox="192 32 32 32"/><svg width="32" height="32" viewBox="0 0 32 32" fill="none" x="192" y="32" xmlns="http://www.w3.org/2000/svg">
<g clip-path="url(#agclip0_35749_113868)">
<path fill-rule="evenodd" clip-rule="evenodd" d="M26.6719 10.8402C27.8516 9.10498 30.0022 10.2817 30.0022 12.1359L30.0022 19.7603C29.9678 20.4194 29.684 21.0516 29.2131 21.5178L22.3405 28.3597C21.8099 28.885 21.0691 29.1116 20.3506 28.9684C20.3506 28.9684 0.0236322 24.6823 10.4997 22.0484C20.9758 19.4145 26.6719 10.8402 26.6719 10.8402Z" fill="#767676"/>
<path fill-rule="evenodd" clip-rule="evenodd" d="M26.6719 10.8402C27.8516 9.10498 30.0022 10.2817 30.0022 12.1359L30.0022 19.7603C29.9678 20.4194 29.684 21.0516 29.2131 21.5178L22.3405 28.3597C21.8099 28.885 21.0691 29.1116 20.3506 28.9684C20.3506 28.9684 0.0236322 24.6823 10.4997 22.0484C20.9758 19.4145 26.6719 10.8402 26.6719 10.8402Z" fill="url(#agpaint0_linear_35749_113868)"/>
<path fill-rule="evenodd" clip-rule="evenodd" d="M26.6719 10.8402C27.8516 9.10498 30.0022 10.2817 30.0022 12.1359L30.0022 19.7603C29.9678 20.4194 29.684 21.0516 29.2131 21.5178L22.3405 28.3597C21.8099 28.885 21.0691 29.1116 20.3506 28.9684C20.3506 28.9684 0.0236322 24.6823 10.4997 22.0484C20.9758 19.4145 26.6719 10.8402 26.6719 10.8402Z" fill="url(#agpaint1_linear_35749_113868)"/>
<path fill-rule="evenodd" clip-rule="evenodd" d="M23.9663 26.7694L23.9734 26.7768L28.6674 22.0914C27.2827 23.48 23.6666 23.5078 20.3093 21.8486C18.0701 20.742 16.5223 18.6106 15.1493 16.4606L7.57513 4.48772L2.67296 9.52456C2.25644 9.95021 1.98494 10.5436 1.9597 11.1658L1.98673 20.853C1.96025 21.5056 2.19369 22.1405 2.63178 22.6076L8.86269 29.2882C9.2912 29.745 9.87871 30.0019 10.4917 30.0005L19.8045 30.0005C20.3794 29.9993 20.9339 29.75 21.3535 29.3404L23.9663 26.7694Z" fill="#4F1A1A"/>
<path fill-rule="evenodd" clip-rule="evenodd" d="M23.9663 26.7694L23.9734 26.7768L28.6674 22.0914C27.2827 23.48 23.6666 23.5078 20.3093 21.8486C18.0701 20.742 16.5223 18.6106 15.1493 16.4606L7.57513 4.48772L2.67296 9.52456C2.25644 9.95021 1.98494 10.5436 1.9597 11.1658L1.98673 20.853C1.96025 21.5056 2.19369 22.1405 2.63178 22.6076L8.86269 29.2882C9.2912 29.745 9.87871 30.0019 10.4917 30.0005L19.8045 30.0005C20.3794 29.9993 20.9339 29.75 21.3535 29.3404L23.9663 26.7694Z" fill="url(#agpaint2_linear_35749_113868)"/>
<path fill-rule="evenodd" clip-rule="evenodd" d="M23.9663 26.7694L23.9734 26.7768L28.6674 22.0914C27.2827 23.48 23.6666 23.5078 20.3093 21.8486C18.0701 20.742 16.5223 18.6106 15.1493 16.4606L7.57513 4.48772L2.67296 9.52456C2.25644 9.95021 1.98494 10.5436 1.9597 11.1658L1.98673 20.853C1.96025 21.5056 2.19369 22.1405 2.63178 22.6076L8.86269 29.2882C9.2912 29.745 9.87871 30.0019 10.4917 30.0005L19.8045 30.0005C20.3794 29.9993 20.9339 29.75 21.3535 29.3404L23.9663 26.7694Z" fill="url(#agpaint3_linear_35749_113868)"/>
<path fill-rule="evenodd" clip-rule="evenodd" d="M23.9663 26.7694L23.9734 26.7768L28.6674 22.0914C27.2827 23.48 23.6666 23.5078 20.3093 21.8486C18.0701 20.742 16.5223 18.6106 15.1493 16.4606L7.57513 4.48772L2.67296 9.52456C2.25644 9.95021 1.98494 10.5436 1.9597 11.1658L1.98673 20.853C1.96025 21.5056 2.19369 22.1405 2.63178 22.6076L8.86269 29.2882C9.2912 29.745 9.87871 30.0019 10.4917 30.0005L19.8045 30.0005C20.3794 29.9993 20.9339 29.75 21.3535 29.3404L23.9663 26.7694Z" fill="url(#agpaint4_linear_35749_113868)"/>
<path fill-rule="evenodd" clip-rule="evenodd" d="M6.34694 20.0977C8.37108 16.1922 9.01865 17.2283 16.4362 11.4056C19.8775 8.70427 21.8746 5.52159 22.8479 3.63345C23.2493 2.8548 22.693 1.98648 21.8449 1.98645L10.9374 1.98611C10.3404 1.98609 9.76744 2.23101 9.34241 2.66789L2.63439 9.56298C2.20167 10.0078 1.95806 10.6147 1.95806 11.2482L1.95806 20.9109C1.95806 21.5276 2.189 22.1199 2.60173 22.5618L7.99347 28.3347C7.99347 28.3347 4.18901 24.2613 6.34694 20.0977Z" fill="#585858"/>
<path fill-rule="evenodd" clip-rule="evenodd" d="M6.34694 20.0977C8.37108 16.1922 9.01865 17.2283 16.4362 11.4056C19.8775 8.70427 21.8746 5.52159 22.8479 3.63345C23.2493 2.8548 22.693 1.98648 21.8449 1.98645L10.9374 1.98611C10.3404 1.98609 9.76744 2.23101 9.34241 2.66789L2.63439 9.56298C2.20167 10.0078 1.95806 10.6147 1.95806 11.2482L1.95806 20.9109C1.95806 21.5276 2.189 22.1199 2.60173 22.5618L7.99347 28.3347C7.99347 28.3347 4.18901 24.2613 6.34694 20.0977Z" fill="url(#agpaint5_linear_35749_113868)"/>
<path fill-rule="evenodd" clip-rule="evenodd" d="M6.34694 20.0977C8.37108 16.1922 9.01865 17.2283 16.4362 11.4056C19.8775 8.70427 21.8746 5.52159 22.8479 3.63345C23.2493 2.8548 22.693 1.98648 21.8449 1.98645L10.9374 1.98611C10.3404 1.98609 9.76744 2.23101 9.34241 2.66789L2.63439 9.56298C2.20167 10.0078 1.95806 10.6147 1.95806 11.2482L1.95806 20.9109C1.95806 21.5276 2.189 22.1199 2.60173 22.5618L7.99347 28.3347C7.99347 28.3347 4.18901 24.2613 6.34694 20.0977Z" fill="url(#agpaint6_linear_35749_113868)"/>
<path fill-rule="evenodd" clip-rule="evenodd" d="M6.34694 20.0977C8.37108 16.1922 9.01865 17.2283 16.4362 11.4056C19.8775 8.70427 21.8746 5.52159 22.8479 3.63345C23.2493 2.8548 22.693 1.98648 21.8449 1.98645L10.9374 1.98611C10.3404 1.98609 9.76744 2.23101 9.34241 2.66789L2.63439 9.56298C2.20167 10.0078 1.95806 10.6147 1.95806 11.2482L1.95806 20.9109C1.95806 21.5276 2.189 22.1199 2.60173 22.5618L7.99347 28.3347C7.99347 28.3347 4.18901 24.2613 6.34694 20.0977Z" fill="url(#agpaint7_linear_35749_113868)"/>
</g>
<defs>
<linearGradient id="agpaint0_linear_35749_113868" x1="23.8338" y1="21.8684" x2="32.0894" y2="12.9024" gradientUnits="userSpaceOnUse">
<stop stop-color="#114A85"/>
<stop offset="0.795693" stop-color="#028EDB"/>
</linearGradient>
<linearGradient id="agpaint1_linear_35749_113868" x1="24.1306" y1="24.3267" x2="35.2102" y2="6.29493" gradientUnits="userSpaceOnUse">
<stop stop-color="#114A85"/>
<stop offset="0.67" stop-color="#028EDB"/>
</linearGradient>
<linearGradient id="agpaint2_linear_35749_113868" x1="7.49882" y1="20.8039" x2="22.2008" y2="20.9104" gradientUnits="userSpaceOnUse">
<stop offset="0.074218" stop-color="#0669B6"/>
<stop offset="0.261846" stop-color="#0E7FCB"/>
<stop offset="0.544674" stop-color="#148DD9"/>
<stop offset="0.95" stop-color="#3CC5EE"/>
</linearGradient>
<linearGradient id="agpaint3_linear_35749_113868" x1="7.33125" y1="26.2163" x2="24.1016" y2="23.7927" gradientUnits="userSpaceOnUse">
<stop offset="0.31" stop-color="#0094E5"/>
<stop offset="1" stop-color="#40D8F9"/>
</linearGradient>
<linearGradient id="agpaint4_linear_35749_113868" x1="5.72545" y1="17.42" x2="21.9799" y2="22.2604" gradientUnits="userSpaceOnUse">
<stop offset="0.09" stop-opacity="0.2"/>
<stop offset="0.55" stop-opacity="0"/>
</linearGradient>
<linearGradient id="agpaint5_linear_35749_113868" x1="17.9425" y1="4.74038" x2="3.63692" y2="14.3694" gradientUnits="userSpaceOnUse">
<stop stop-color="#BDF5FF"/>
<stop offset="1" stop-color="#40D9FA"/>
</linearGradient>
<linearGradient id="agpaint6_linear_35749_113868" x1="2.44052" y1="22.6881" x2="17.2226" y2="12.8612" gradientUnits="userSpaceOnUse">
<stop stop-color="#3CC5EE"/>
<stop offset="1" stop-color="#50E0FF"/>
</linearGradient>
<linearGradient id="agpaint7_linear_35749_113868" x1="6.73677" y1="15.4976" x2="12.2912" y2="18.3233" gradientUnits="userSpaceOnUse">
<stop stop-color="#A1ECFF" stop-opacity="0"/>
<stop offset="0.9" stop-color="#A1ECFF" stop-opacity="0.9"/>
</linearGradient>
<clipPath id="agclip0_35749_113868">
<rect width="32" height="32" fill="white"/>
</clipPath>
</defs>
</svg><view id="data_explorer" viewBox="77 96 48 48"/><svg width="48" height="48" viewBox="0 0 48 48" fill="none" x="77" y="96" xmlns="http://www.w3.org/2000/svg">
<path d="M23.3852 29.3039L20.2552 40.841C20.1952 41.051 20.1652 41.2709 20.1652 41.5009C20.1652 42.8805 21.2852 44.0002 22.6652 44.0002C23.3952 44.0002 24.0452 43.6903 24.5052 43.2004L43.1151 22.0856C42.5051 22.7555 41.6251 23.1754 40.6551 23.1754H31.4251C27.5851 23.1754 24.3452 25.7747 23.3852 29.3139" fill="url(#ahpaint0_linear_35749_114108)"/>
<path d="M29.4149 37.6318C34.9249 31.3733 43.1249 22.0856 43.1249 22.0856C42.5149 22.7555 41.6349 23.1754 40.6649 23.1754H31.4349C27.5949 23.1754 24.3549 25.7747 23.3949 29.3139L21.1349 37.6318H29.4149Z" fill="url(#ahpaint1_linear_35749_114108)"/>
<path d="M43.9949 19.8359C43.9949 17.9963 42.5049 16.5067 40.6649 16.5067H15.0849L7.33487 24.8346C5.49487 24.8346 4.00488 26.3243 4.00488 28.1638C4.00488 30.0034 5.49487 31.493 7.33487 31.493H27.4449C29.2849 31.493 30.7749 32.9826 30.7749 34.8222C30.7749 35.672 30.4549 36.4518 29.9249 37.0416L42.0249 23.315L43.1049 22.0953H43.0948C43.6549 21.4955 44.0049 20.7057 44.0049 19.8259L43.9949 19.8359Z" fill="url(#ahpaint2_linear_35749_114108)"/>
<path d="M24.5649 31.503L39.1649 16.5067H15.0849L7.33487 24.8346C5.49487 24.8346 4.00488 26.3243 4.00488 28.1638C4.00488 30.0034 5.49487 31.493 7.33487 31.493H24.5649V31.503Z" fill="url(#ahpaint3_linear_35749_114108)"/>
<path d="M24.595 18.6964L27.725 7.15922C27.785 6.94927 27.815 6.72933 27.815 6.49938C27.815 5.11972 26.695 4 25.315 4C24.585 4 23.935 4.30992 23.475 4.7998L4.86499 25.9146C5.47499 25.2448 6.35498 24.8249 7.32498 24.8249H16.555C20.395 24.8249 23.635 22.2255 24.595 18.6864" fill="url(#ahpaint4_linear_35749_114108)"/>
<defs>
<linearGradient id="ahpaint0_linear_35749_114108" x1="21.5752" y1="45.6598" x2="36.3397" y2="20.083" gradientUnits="userSpaceOnUse">
<stop offset="0.28" stop-color="#0669B6"/>
<stop offset="0.49" stop-color="#114A85"/>
</linearGradient>
<linearGradient id="ahpaint1_linear_35749_114108" x1="32.1249" y1="37.4918" x2="32.1249" y2="21.9557" gradientUnits="userSpaceOnUse">
<stop offset="0.31" stop-opacity="0"/>
<stop offset="0.56" stop-opacity="0.4"/>
</linearGradient>
<linearGradient id="ahpaint2_linear_35749_114108" x1="14.3849" y1="15.357" x2="33.7606" y2="32.7974" gradientUnits="userSpaceOnUse">
<stop stop-color="#0669B6"/>
<stop offset="0.33" stop-color="#148DD9"/>
<stop offset="0.95" stop-color="#3CC5EE"/>
</linearGradient>
<linearGradient id="ahpaint3_linear_35749_114108" x1="26.5449" y1="31.383" x2="17.6781" y2="16.0349" gradientUnits="userSpaceOnUse">
<stop offset="0.29" stop-opacity="0"/>
<stop offset="0.42" stop-opacity="0.05"/>
<stop offset="0.64" stop-opacity="0.1"/>
<stop offset="0.87" stop-opacity="0.3"/>
</linearGradient>
<linearGradient id="ahpaint4_linear_35749_114108" x1="24.155" y1="20.0061" x2="12.2565" y2="13.1352" gradientUnits="userSpaceOnUse">
<stop stop-color="#A1ECFF"/>
<stop offset="0.72" stop-color="#3CC5EE"/>
</linearGradient>
</defs>
</svg><view id="data_integration" viewBox="137 144 20 20"/><svg width="20" height="20" viewBox="0 0 20 20" fill="none" x="137" y="144" xmlns="http://www.w3.org/2000/svg">
<path d="M6.622 17.9968C6.29073 17.9968 6.03529 17.7009 6.08318 17.3729C6.79363 12.5619 10.9166 8.99868 15.77 8.99868H16.7519C17.4224 8.99868 17.9133 8.59877 17.9133 7.92691L17.9692 7.66296V12.33C17.9692 13.0658 17.3745 13.6617 16.6401 13.6617H16.0893C14.0458 13.6617 12.2417 14.9974 11.639 16.957L11.4634 17.5249C11.3756 17.8048 11.1202 17.9968 10.8288 17.9968H6.62998H6.622Z" fill="url(#aipaint0_linear_35749_112824)"/>
<path d="M6.622 17.9968C6.29073 17.9968 6.03529 17.7009 6.08318 17.3729C6.79363 12.5619 10.9166 8.99868 15.77 8.99868H16.7519C17.4224 8.99868 17.9133 8.59877 17.9133 7.92691L17.9692 7.66296V12.33C17.9692 13.0658 17.3745 13.6617 16.6401 13.6617H16.0893C14.0458 13.6617 12.2417 14.9974 11.639 16.957L11.4634 17.5249C11.3756 17.8048 11.1202 17.9968 10.8288 17.9968H6.62998H6.622Z" fill="url(#aipaint1_linear_35749_112824)"/>
<path d="M2.66654 12.6658C2.29935 12.6658 2 12.3658 2 11.9979V7.99873C2 7.63081 2.29935 7.33087 2.66654 7.33087H14.6404C15.0076 7.33087 15.3069 7.63081 15.3069 7.99873V11.9979C15.3069 12.3658 15.0076 12.6658 14.6404 12.6658H2.66654Z" fill="url(#aipaint2_linear_35749_112824)"/>
<path d="M2.66654 12.6658C2.29935 12.6658 2 12.3658 2 11.9979V7.99873C2 7.63081 2.29935 7.33087 2.66654 7.33087H14.6404C15.0076 7.33087 15.3069 7.63081 15.3069 7.99873V11.9979C15.3069 12.3658 15.0076 12.6658 14.6404 12.6658H2.66654Z" fill="url(#aipaint3_radial_35749_112824)"/>
<path d="M6.62991 2C6.29464 2 6.03521 2.29994 6.08311 2.63187C6.79355 7.53084 10.9844 11.1621 15.9256 11.1621H16.7518C17.4223 11.1621 17.9651 11.706 17.9651 12.3778V7.66682C17.9651 6.93097 17.3704 6.33509 16.636 6.33509H16.0852C14.0417 6.33509 12.2377 4.99937 11.635 3.03978L11.4594 2.4719C11.3715 2.19196 11.1161 2 10.8247 2H6.6339H6.62991Z" fill="url(#aipaint4_linear_35749_112824)"/>
<path opacity="0.4" d="M16.6358 6.3312H16.085C15.1391 6.3312 14.245 6.04326 13.4987 5.53937V10.8583C14.277 11.0542 15.0912 11.1622 15.9293 11.1622H16.7555C17.4261 11.1622 17.9689 11.7061 17.9689 12.3779V7.66692C17.9689 6.93108 17.3742 6.3352 16.6398 6.3352L16.6358 6.3312Z" fill="url(#aipaint5_linear_35749_112824)"/>
<g opacity="0.7">
<path d="M6.66165 2.00006C6.32638 2.00006 6.06695 2.3 6.11484 2.63193C6.82529 7.5309 11.0161 11.1621 15.9573 11.1621H16.7835C17.4541 11.1621 17.9969 11.706 17.9969 12.3779V7.66688C17.9969 6.93103 17.4022 6.33515 16.6678 6.33515H16.117C14.0734 6.33515 12.2694 4.99943 11.6667 3.03984L11.4911 2.47196C11.4033 2.19202 11.1478 2.00006 10.8565 2.00006H6.66564H6.66165Z" fill="url(#aipaint6_linear_35749_112824)"/>
</g>
<defs>
<linearGradient id="aipaint0_linear_35749_112824" x1="7.01714" y1="18.7806" x2="18.0588" y2="7.76074" gradientUnits="userSpaceOnUse">
<stop offset="0.26" stop-color="#0D7012"/>
<stop offset="1" stop-color="#085714"/>
</linearGradient>
<linearGradient id="aipaint1_linear_35749_112824" x1="23.3614" y1="10.8423" x2="2.41131" y2="15.4878" gradientUnits="userSpaceOnUse">
<stop offset="0.04" stop-color="#114A8A"/>
<stop offset="1" stop-color="#0C59A3" stop-opacity="0"/>
</linearGradient>
<linearGradient id="aipaint2_linear_35749_112824" x1="-6.34177" y1="9.99831" x2="14.8958" y2="9.99831" gradientUnits="userSpaceOnUse">
<stop stop-color="#107C10"/>
<stop offset="0.96" stop-color="#56B50E"/>
</linearGradient>
<radialGradient id="aipaint3_radial_35749_112824" cx="0" cy="0" r="1" gradientUnits="userSpaceOnUse" gradientTransform="translate(12.5869 9.1306) rotate(-56.3222) scale(4.06468 10.3571)">
<stop stop-opacity="0.3"/>
<stop offset="1" stop-opacity="0"/>
</radialGradient>
<linearGradient id="aipaint4_linear_35749_112824" x1="18.7275" y1="15.4612" x2="8.38667" y2="0.71945" gradientUnits="userSpaceOnUse">
<stop offset="0.04" stop-color="#33980F"/>
<stop offset="1" stop-color="#BAE884"/>
</linearGradient>
<linearGradient id="aipaint5_linear_35749_112824" x1="15.5143" y1="8.95865" x2="17.917" y2="8.95865" gradientUnits="userSpaceOnUse">
<stop stop-color="#E5FAC1" stop-opacity="0"/>
<stop offset="0.56" stop-color="#E5FAC1" stop-opacity="0.52"/>
<stop offset="1" stop-color="#E5FAC1"/>
</linearGradient>
<linearGradient id="aipaint6_linear_35749_112824" x1="5.57602" y1="-5.56236" x2="11.8129" y2="5.21272" gradientUnits="userSpaceOnUse">
<stop offset="0.14" stop-color="#FDE100"/>
<stop offset="0.98" stop-color="#FFC600" stop-opacity="0"/>
</linearGradient>
</defs>
</svg><view id="data_science_20" viewBox="157 144 20 20"/><svg width="20" height="20" viewBox="0 0 20 20" fill="none" x="157" y="144" xmlns="http://www.w3.org/2000/svg">
<path d="M10.3559 17.9295C10.064 18.0415 9.72411 18.0135 9.44823 17.8295C8.98842 17.5257 8.72453 16.83 9.0324 16.3701L12.9228 10.5845L16.4973 14.5949C16.7412 14.8708 16.7172 15.2906 16.4413 15.5345C16.3854 15.5865 16.3214 15.6265 16.2534 15.6544L10.3559 17.9295Z" fill="url(#ajpaint0_linear_35749_113351)"/>
<path d="M7.221 11.0043L3.43456 5.30669C3.37059 5.20673 3.3346 5.08678 3.3346 4.95883C3.3346 4.59098 3.63448 4.29111 4.00233 4.29111C4.09429 4.29111 4.21824 4.27511 4.29821 4.3071L10.4557 7.20191L10.1038 7.90162L7.221 11.0043Z" fill="url(#ajpaint1_linear_35749_113351)"/>
<path d="M9.64404 17.9333C9.57607 17.9093 9.5121 17.8733 9.44812 17.8333C8.98831 17.5294 8.86436 16.9057 9.16824 16.4459L16.5652 5.31048C16.6292 5.21052 16.6651 5.09057 16.6651 4.96262C16.6651 4.68674 16.4972 4.44684 16.2533 4.34688L10.3557 2.07182C10.2438 2.02784 10.1238 2.00385 9.9999 2.00385C9.87595 2.00385 9.756 2.02784 9.64404 2.06782L3.74648 4.34288C3.82645 4.31089 3.91441 4.2909 4.00637 4.2909C4.09833 4.2909 4.1823 4.31089 4.26226 4.34288L8.91634 6.58595C9.2562 6.76188 9.49611 7.08974 9.49611 7.49358C9.49611 7.74547 9.40414 7.97338 9.2482 8.1493L3.50658 14.5946C3.26268 14.8705 3.28667 15.2904 3.56255 15.5343C3.61853 15.5862 3.6825 15.6262 3.75048 15.6542L9.64804 17.9293" fill="url(#ajpaint2_linear_35749_113351)"/>
<path d="M4.2744 4.34303L8.92848 6.5861C9.20436 6.72605 9.40828 6.96995 9.48025 7.26982L16.6653 4.85882C16.6293 4.62691 16.4814 4.431 16.2694 4.34303L10.3719 2.06797C10.2599 2.02399 10.14 2 10.016 2C9.89207 2 9.77212 2.02399 9.66017 2.06397L3.76261 4.33903C3.84257 4.30705 3.93054 4.28705 4.0225 4.28705C4.11447 4.28705 4.19843 4.30705 4.2784 4.33903L4.2744 4.34303Z" fill="url(#ajpaint3_linear_35749_113351)"/>
<defs>
<linearGradient id="ajpaint0_linear_35749_113351" x1="10.1279" y1="13.3274" x2="14.5861" y2="17.0699" gradientUnits="userSpaceOnUse">
<stop stop-color="#292941"/>
<stop offset="0.22" stop-color="#114A85"/>
<stop offset="0.44" stop-color="#0A5BA0"/>
<stop offset="0.65" stop-color="#0669B6"/>
</linearGradient>
<linearGradient id="ajpaint1_linear_35749_113351" x1="4.91795" y1="3.50743" x2="9.19618" y2="9.6209" gradientUnits="userSpaceOnUse">
<stop offset="0.22" stop-color="#114A85"/>
<stop offset="0.85" stop-color="#0669B6"/>
</linearGradient>
<linearGradient id="ajpaint2_linear_35749_113351" x1="9.99989" y1="17.9333" x2="9.99989" y2="2.00385" gradientUnits="userSpaceOnUse">
<stop offset="0.1" stop-color="#288CD9"/>
<stop offset="0.75" stop-color="#3CC5EE"/>
</linearGradient>
<linearGradient id="ajpaint3_linear_35749_113351" x1="9.54022" y1="2.09596" x2="10.8317" y2="6.90597" gradientUnits="userSpaceOnUse">
<stop stop-color="#A1ECFF" stop-opacity="0.9"/>
<stop offset="0.92" stop-color="#A1ECFF" stop-opacity="0"/>
</linearGradient>
</defs>
</svg><view id="data_stream" viewBox="192 121 24 24"/><svg width="24" height="24" viewBox="0 0 24 24" fill="none" x="192" y="121" xmlns="http://www.w3.org/2000/svg">
<path d="M9 11C9 6.85786 12.3579 3.5 16.5 3.5H16.5948C17.009 3.5 17.3448 3.16421 17.3448 2.75C17.3448 2.33579 17.009 2 16.5948 2H16.5C11.5294 2 7.5 6.02944 7.5 11V12.25C7.5 12.9404 6.94036 13.5 6.25 13.5H2.75C2.33579 13.5 2 13.8358 2 14.25C2 14.6642 2.33579 15 2.75 15H6.25C7.76878 15 9 13.7688 9 12.25V11ZM16.75 7C14.4028 7 12.5 8.90279 12.5 11.25V12.75C12.5 15.9256 9.92564 18.5 6.75 18.5H2.75C2.33579 18.5 2 18.1642 2 17.75C2 17.3358 2.33579 17 2.75 17H6.75C9.09721 17 11 15.0972 11 12.75V11.25C11 8.07436 13.5744 5.5 16.75 5.5H21.25C21.6642 5.5 22 5.83579 22 6.25C22 6.66421 21.6642 7 21.25 7H16.75ZM17.25 10.5C16.5596 10.5 16 11.0596 16 11.75V13C16 17.9706 11.9706 22 7 22H6.75C6.33579 22 6 21.6642 6 21.25C6 20.8358 6.33579 20.5 6.75 20.5H7C11.1421 20.5 14.5 17.1421 14.5 13V11.75C14.5 10.2312 15.7312 9 17.25 9H21.25C21.6642 9 22 9.33579 22 9.75C22 10.1642 21.6642 10.5 21.25 10.5H17.25Z" fill="#212121"/>
</svg><view id="data_warehousing" viewBox="0 173 20 20"/><svg width="20" height="20" viewBox="0 0 20 20" fill="none" y="173" xmlns="http://www.w3.org/2000/svg">
<path d="M15.9966 17.4827C17.1003 17.4827 17.996 16.5883 17.996 15.4863V7.70008C17.996 7.46051 17.8721 7.25287 17.6841 7.13708C16.1085 6.16281 12.1975 3.75108 10.342 2.60511C10.242 2.54522 10.1261 2.51328 10.0021 2.51328C9.87014 2.51328 9.75016 2.5532 9.64619 2.61709C7.78667 3.76705 3.89566 6.1668 2.32006 7.13708C2.13211 7.25287 2.00415 7.4645 2.00415 7.70407V15.4903C2.00415 16.5923 2.89992 17.4867 4.00364 17.4867H16.0006L15.9966 17.4827Z" fill="url(#alpaint0_linear_35749_113617)"/>
<path d="M2 11.018V15.4861C2 16.5881 2.89577 17.4826 3.99949 17.4826H15.9964C17.1001 17.4826 17.9959 16.5881 17.9959 15.4861V11.018H2Z" fill="url(#alpaint1_linear_35749_113617)"/>
<path d="M3.99949 17.4827C2.89577 17.4827 2 16.5883 2 15.4862V10.8305C2 10.5869 2.13197 10.3753 2.32392 10.2595L7.64655 6.97331C7.75052 6.90943 7.8705 6.87349 7.99846 6.87349C8.12643 6.87349 8.2504 6.90943 8.35037 6.97331L13.673 10.2595C13.869 10.3753 13.9969 10.5869 13.9969 10.8305V15.4862C13.9969 16.5883 14.8927 17.4827 15.9964 17.4827H3.99949Z" fill="url(#alpaint2_linear_35749_113617)"/>
<path d="M3.99949 17.4827C2.89577 17.4827 2 16.5883 2 15.4862V10.8305C2 10.5869 2.13197 10.3753 2.32392 10.2595L7.64655 6.97331C7.75052 6.90943 7.8705 6.87349 7.99846 6.87349C8.12643 6.87349 8.2504 6.90943 8.35037 6.97331L13.673 10.2595C13.869 10.3753 13.9969 10.5869 13.9969 10.8305V15.4862C13.9969 16.5883 14.8927 17.4827 15.9964 17.4827H3.99949Z" fill="url(#alpaint3_radial_35749_113617)"/>
<path d="M13.9969 15.4861V11.018H2V15.4861C2 16.5881 2.89577 17.4826 3.99949 17.4826H15.9964C14.8927 17.4826 13.9969 16.5881 13.9969 15.4861Z" fill="url(#alpaint4_linear_35749_113617)"/>
<path d="M3.99949 17.4827C2.89577 17.4827 2 16.5883 2 15.4863V13.961C2 13.7214 2.12797 13.5138 2.31592 13.394L5.64706 11.3376C5.75104 11.2737 5.87101 11.2378 5.99897 11.2378C6.12694 11.2378 6.25091 11.2737 6.35089 11.3376C6.35089 11.3376 8.16642 12.4596 9.67804 13.39C9.86999 13.5058 9.99795 13.7174 9.99795 13.957V15.4863C9.99795 16.5883 10.8937 17.4827 11.9974 17.4827H3.99949Z" fill="url(#alpaint5_linear_35749_113617)"/>
<path d="M10.3299 16.5882C10.1219 16.2728 9.99795 15.8974 9.99795 15.4902V13.9609C9.99795 13.7213 9.86999 13.5097 9.67804 13.3939C8.16642 12.4635 6.35089 11.3415 6.35089 11.3415C6.24691 11.2776 6.12694 11.2417 5.99897 11.2417C5.87101 11.2417 5.74704 11.2776 5.64706 11.3415L2.31592 13.3979C2.12797 13.5137 2 13.7253 2 13.9649V15.4902C2 15.8974 2.12396 16.2768 2.33191 16.5922H10.3299V16.5882Z" fill="url(#alpaint6_linear_35749_113617)"/>
<defs>
<linearGradient id="alpaint0_linear_35749_113617" x1="9.9981" y1="17.4827" x2="9.9981" y2="2.50928" gradientUnits="userSpaceOnUse">
<stop stop-color="#114A85"/>
<stop offset="0.67" stop-color="#028EDB"/>
</linearGradient>
<linearGradient id="alpaint1_linear_35749_113617" x1="9.99795" y1="18.1693" x2="9.99795" y2="11.7048" gradientUnits="userSpaceOnUse">
<stop stop-opacity="0.2"/>
<stop offset="0.55" stop-opacity="0"/>
</linearGradient>
<linearGradient id="alpaint2_linear_35749_113617" x1="8.99821" y1="17.4827" x2="8.99821" y2="6.87349" gradientUnits="userSpaceOnUse">
<stop offset="0.31" stop-color="#0094E5"/>
<stop offset="1" stop-color="#40D8F9"/>
</linearGradient>
<radialGradient id="alpaint3_radial_35749_113617" cx="0" cy="0" r="1" gradientUnits="userSpaceOnUse" gradientTransform="translate(6.3109 16.1011) scale(5.87449 5.8656)">
<stop stop-opacity="0.3"/>
<stop offset="1" stop-opacity="0"/>
</radialGradient>
<linearGradient id="alpaint4_linear_35749_113617" x1="8.99821" y1="17.4826" x2="8.99821" y2="11.018" gradientUnits="userSpaceOnUse">
<stop offset="0.09" stop-opacity="0.2"/>
<stop offset="0.55" stop-opacity="0"/>
</linearGradient>
<linearGradient id="alpaint5_linear_35749_113617" x1="6.99872" y1="17.4867" x2="6.99872" y2="11.2378" gradientUnits="userSpaceOnUse">
<stop stop-color="#3CC5EE"/>
<stop offset="1" stop-color="#50E0FF"/>
</linearGradient>
<linearGradient id="alpaint6_linear_35749_113617" x1="6.16293" y1="15.6259" x2="6.16293" y2="10.2754" gradientUnits="userSpaceOnUse">
<stop stop-color="#A1ECFF" stop-opacity="0"/>
<stop offset="0.9" stop-color="#A1ECFF" stop-opacity="0.9"/>
</linearGradient>
</defs>
</svg><view id="databases" viewBox="98 173 18 18"/><svg id="ama96792b7-ce28-4ca3-9767-4e065ef4820f" width="18" height="18" viewBox="0 0 18 18" x="98" y="173" xmlns="http://www.w3.org/2000/svg">
  <defs>
    <linearGradient id="amef16bf9d-a8b6-4181-b6cd-66fc5203f956" x1="2.59" y1="10.16" x2="15.41" y2="10.16" gradientUnits="userSpaceOnUse">
      <stop offset="0" stop-color="#005ba1"/>
      <stop offset="0.07" stop-color="#0060a9"/>
      <stop offset="0.36" stop-color="#0071c8"/>
      <stop offset="0.52" stop-color="#0078d4"/>
      <stop offset="0.64" stop-color="#0074cd"/>
      <stop offset="0.82" stop-color="#006abb"/>
      <stop offset="1" stop-color="#005ba1"/>
    </linearGradient>
    <radialGradient id="ambf3846c3-4d74-4743-ab9a-f334c248bd92" cx="9.36" cy="10.57" r="7.07" gradientUnits="userSpaceOnUse">
      <stop offset="0" stop-color="#f2f2f2"/>
      <stop offset="0.58" stop-color="#eee"/>
      <stop offset="1" stop-color="#e6e6e6"/>
    </radialGradient>
  </defs>
  <path d="M9,5.14c-3.54,0-6.41-1-6.41-2.32V15.18c0,1.27,2.82,2.3,6.32,2.32H9c3.54,0,6.41-1,6.41-2.32V2.82C15.41,4.11,12.54,5.14,9,5.14Z" fill="url(#amef16bf9d-a8b6-4181-b6cd-66fc5203f956)"/>
  <path d="M15.41,2.82c0,1.29-2.87,2.32-6.41,2.32s-6.41-1-6.41-2.32S5.46.5,9,.5s6.41,1,6.41,2.32" fill="#e8e8e8"/>
  <path d="M13.92,2.63c0,.82-2.21,1.48-4.92,1.48S4.08,3.45,4.08,2.63,6.29,1.16,9,1.16s4.92.66,4.92,1.47" fill="#50e6ff"/>
  <path d="M9,3a11.55,11.55,0,0,0-3.89.57A11.42,11.42,0,0,0,9,4.11a11.15,11.15,0,0,0,3.89-.58A11.84,11.84,0,0,0,9,3Z" fill="#198ab3"/>
  <path d="M12.9,11.4V8H12v4.13h2.46V11.4ZM5.76,9.73a1.83,1.83,0,0,1-.51-.31.44.44,0,0,1-.12-.32.34.34,0,0,1,.15-.3.68.68,0,0,1,.42-.12,1.62,1.62,0,0,1,1,.29V8.11a2.58,2.58,0,0,0-1-.16,1.64,1.64,0,0,0-1.09.34,1.08,1.08,0,0,0-.42.89c0,.51.32.91,1,1.21a2.88,2.88,0,0,1,.62.36.42.42,0,0,1,.15.32.38.38,0,0,1-.16.31.81.81,0,0,1-.45.11,1.66,1.66,0,0,1-1.09-.42V12a2.17,2.17,0,0,0,1.07.24,1.88,1.88,0,0,0,1.18-.33A1.08,1.08,0,0,0,6.84,11a1.05,1.05,0,0,0-.25-.7A2.42,2.42,0,0,0,5.76,9.73ZM11,11.32a2.34,2.34,0,0,0,.33-1.26A2.32,2.32,0,0,0,11,9a1.81,1.81,0,0,0-.7-.75,2,2,0,0,0-1-.26,2.11,2.11,0,0,0-1.08.27A1.86,1.86,0,0,0,7.49,9a2.46,2.46,0,0,0-.26,1.14,2.26,2.26,0,0,0,.24,1,1.76,1.76,0,0,0,.69.74,2.06,2.06,0,0,0,1,.3l.86,1h1.21L10,12.08A1.79,1.79,0,0,0,11,11.32ZM10,11.07a.94.94,0,0,1-.76.35.92.92,0,0,1-.76-.36,1.52,1.52,0,0,1-.29-1,1.53,1.53,0,0,1,.29-1,1,1,0,0,1,.78-.37.87.87,0,0,1,.75.37,1.62,1.62,0,0,1,.27,1A1.46,1.46,0,0,1,10,11.07Z" fill="url(#ambf3846c3-4d74-4743-ab9a-f334c248bd92)"/>
</svg><view id="external_data_20_filled" viewBox="77 144 20 21"/><svg width="20" height="21" viewBox="0 0 20 21" fill="none" x="77" y="144" xmlns="http://www.w3.org/2000/svg">
<path fill-rule="evenodd" clip-rule="evenodd" d="M5.5 2.5C4.67157 2.5 4 3.17157 4 4V18C4 18.2761 4.22386 18.5 4.5 18.5H7V15C7 14.7239 7.22386 14.5 7.5 14.5H9V10.809L9.00681 10.8152C9.03307 10.4609 9.13407 10.1359 9.28845 9.8412C9.11287 9.70393 9 9.49015 9 9.25C9 8.83579 9.33579 8.5 9.75 8.5C9.95594 8.5 10.1425 8.583 10.278 8.71737C10.4555 8.58347 10.6424 8.46361 10.8324 8.35808C11.4521 8.01378 12.1934 7.76406 13 7.62557V4C13 3.17157 12.3284 2.5 11.5 2.5H5.5ZM9.75 7.03369C10.1642 7.03369 10.5 6.6979 10.5 6.28369C10.5 5.86948 10.1642 5.53369 9.75 5.53369C9.33579 5.53369 9 5.86948 9 6.28369C9 6.6979 9.33579 7.03369 9.75 7.03369ZM8 12.25C8 12.6642 7.66421 13 7.25 13C6.83579 13 6.5 12.6642 6.5 12.25C6.5 11.8358 6.83579 11.5 7.25 11.5C7.66421 11.5 8 11.8358 8 12.25ZM8 9.25C8 9.66421 7.66421 10 7.25 10C6.83579 10 6.5 9.66421 6.5 9.25C6.5 8.83579 6.83579 8.5 7.25 8.5C7.66421 8.5 8 8.83579 8 9.25ZM8 6.28369C8 6.6979 7.66421 7.03369 7.25 7.03369C6.83579 7.03369 6.5 6.6979 6.5 6.28369C6.5 5.86948 6.83579 5.53369 7.25 5.53369C7.66421 5.53369 8 5.86948 8 6.28369Z" fill="black"/>
<path d="M8 15.5H9V16.9994C9 17.5731 9.19442 18.0745 9.49987 18.5H8V15.5Z" fill="black"/>
<path d="M15.8793 8.61962C16.2803 8.69127 16.6567 8.79333 16.9998 8.92091C18.2059 9.36938 19 10.1332 19 11C19 12.3807 16.9853 13.5 14.5 13.5C12.0147 13.5 10 12.3807 10 11C10 9.61929 12.0147 8.5 14.5 8.5C14.9811 8.5 15.4446 8.54195 15.8793 8.61962Z" fill="black"/>
<path d="M14.5 14.5C15.8799 14.5 17.1785 14.1914 18.1676 13.6419C18.4605 13.4792 18.7461 13.2824 19.0013 13.0526C19.0008 14.2315 19 16.0953 19 16.9994C19 18.3802 16.9853 19.4994 14.5 19.4994C12.0147 19.4994 10 18.3802 10 16.9994V13.0538C10.2549 13.2831 10.54 13.4794 10.8324 13.6419C11.8215 14.1914 13.1201 14.5 14.5 14.5Z" fill="black"/>
</svg><view id="external_data_20_regular" viewBox="97 144 20 21"/><svg width="20" height="21" viewBox="0 0 20 21" fill="none" x="97" y="144" xmlns="http://www.w3.org/2000/svg">
<path d="M4 18C4 18.2761 4.22386 18.5 4.5 18.5H9.49987C9.2868 18.2032 9.12776 17.8694 9.05104 17.5H8V15.5H9V14.5H7.5C7.22386 14.5 7 14.7239 7 15V17.5H5V4C5 3.72386 5.22386 3.5 5.5 3.5H11.5C11.7761 3.5 12 3.72386 12 4V7.86465C12.3183 7.76527 12.6531 7.68514 13 7.62557V4C13 3.17157 12.3284 2.5 11.5 2.5H5.5C4.67157 2.5 4 3.17157 4 4V18Z" fill="black"/>
<path d="M9.28845 9.8412C9.52129 9.39668 9.87557 9.02095 10.278 8.71737C10.1425 8.583 9.95594 8.5 9.75 8.5C9.33579 8.5 9 8.83579 9 9.25C9 9.49015 9.11287 9.70393 9.28845 9.8412Z" fill="black"/>
<path d="M9.75 7.03369C10.1642 7.03369 10.5 6.6979 10.5 6.28369C10.5 5.86948 10.1642 5.53369 9.75 5.53369C9.33579 5.53369 9 5.86948 9 6.28369C9 6.6979 9.33579 7.03369 9.75 7.03369Z" fill="black"/>
<path d="M8 12.25C8 12.6642 7.66421 13 7.25 13C6.83579 13 6.5 12.6642 6.5 12.25C6.5 11.8358 6.83579 11.5 7.25 11.5C7.66421 11.5 8 11.8358 8 12.25Z" fill="black"/>
<path d="M7.25 10C7.66421 10 8 9.66421 8 9.25C8 8.83579 7.66421 8.5 7.25 8.5C6.83579 8.5 6.5 8.83579 6.5 9.25C6.5 9.66421 6.83579 10 7.25 10Z" fill="black"/>
<path d="M8 6.28369C8 6.6979 7.66421 7.03369 7.25 7.03369C6.83579 7.03369 6.5 6.6979 6.5 6.28369C6.5 5.86948 6.83579 5.53369 7.25 5.53369C7.66421 5.53369 8 5.86948 8 6.28369Z" fill="black"/>
<path d="M15.8793 8.61962C16.2803 8.69127 16.6567 8.79333 16.9998 8.92091C18.2059 9.36938 19 10.1332 19 11C19 12.3807 16.9853 13.5 14.5 13.5C12.0147 13.5 10 12.3807 10 11C10 9.61929 12.0147 8.5 14.5 8.5C14.9811 8.5 15.4446 8.54195 15.8793 8.61962Z" fill="black"/>
<path d="M14.5 14.5C15.8799 14.5 17.1785 14.1914 18.1676 13.6419C18.4605 13.4792 18.7461 13.2824 19.0013 13.0526C19.0008 14.2315 19 16.0953 19 16.9994C19 18.3802 16.9853 19.4994 14.5 19.4994C12.0147 19.4994 10 18.3802 10 16.9994V13.0538C10.2549 13.2831 10.54 13.4794 10.8324 13.6419C11.8215 14.1914 13.1201 14.5 14.5 14.5Z" fill="black"/>
</svg><view id="fabric_24_color" viewBox="192 145 24 24"/><svg width="24" height="24" viewBox="0 0 24 24" fill="none" x="192" y="145" xmlns="http://www.w3.org/2000/svg">
<mask id="apmask0_37743_182742" style="mask-type:luminance" maskUnits="userSpaceOnUse" x="2" y="2" width="21" height="21">
<path d="M22.003 2H2V22.003H22.003V2Z" fill="white"/>
</mask>
<g mask="url(#apmask0_37743_182742)">
<path fill-rule="evenodd" clip-rule="evenodd" d="M2.82001 15.802L2.52701 16.874C2.41701 17.217 2.26501 17.721 2.18201 18.169C2.02993 18.5704 1.97165 19.0012 2.01162 19.4285C2.0516 19.8559 2.18876 20.2684 2.41264 20.6346C2.63651 21.0008 2.94116 21.311 3.30329 21.5414C3.66542 21.7718 4.07544 21.9164 4.50201 21.964C4.89801 22.021 5.34601 22.018 5.84801 21.944L8.15501 21.626C8.43875 21.5867 8.7047 21.4649 8.91981 21.2757C9.13493 21.0866 9.28973 20.8384 9.36501 20.562L10.953 14.73L2.82001 15.803V15.802Z" fill="url(#appaint0_linear_37743_182742)"/>
<path d="M5.07001 16.078C2.63901 16.455 2.14001 18.29 2.14001 18.29L4.46701 9.73304L16.635 8.08704L14.975 14.114C14.9322 14.2737 14.8439 14.4175 14.7209 14.5279C14.5978 14.6384 14.4454 14.7107 14.282 14.736L14.214 14.747L5.00101 16.09L5.06901 16.078H5.07001Z" fill="url(#appaint1_linear_37743_182742)"/>
<path d="M5.07001 16.078C2.63901 16.455 2.14001 18.29 2.14001 18.29L4.46701 9.73304L16.635 8.08704L14.975 14.114C14.9322 14.2737 14.8439 14.4175 14.7209 14.5279C14.5978 14.6384 14.4454 14.7107 14.282 14.736L14.214 14.747L5.00101 16.09L5.06901 16.078H5.07001Z" fill="url(#appaint2_linear_37743_182742)" fill-opacity="0.8"/>
<path d="M6.44996 10.619L19.92 8.62904C20.0756 8.60743 20.2214 8.54041 20.3392 8.43635C20.4569 8.3323 20.5414 8.19584 20.582 8.04404L21.972 3.01204C22.0076 2.88517 22.0113 2.75145 21.9826 2.62283C21.9539 2.49422 21.8937 2.37472 21.8075 2.27505C21.7213 2.17537 21.6118 2.09863 21.4886 2.05168C21.3655 2.00474 21.2326 1.98905 21.102 2.00604L8.24996 3.90604C7.56997 4.01632 6.93603 4.31976 6.42364 4.7802C5.91125 5.24064 5.54203 5.83867 5.35996 6.50304L3.50696 13.221C3.87896 11.862 4.10696 11.043 6.44996 10.619Z" fill="url(#appaint3_linear_37743_182742)"/>
<path d="M6.44996 10.619L19.92 8.62904C20.0756 8.60743 20.2214 8.54041 20.3392 8.43635C20.4569 8.3323 20.5414 8.19584 20.582 8.04404L21.972 3.01204C22.0076 2.88517 22.0113 2.75145 21.9826 2.62283C21.9539 2.49422 21.8937 2.37472 21.8075 2.27505C21.7213 2.17537 21.6118 2.09863 21.4886 2.05168C21.3655 2.00474 21.2326 1.98905 21.102 2.00604L8.24996 3.90604C7.56997 4.01632 6.93603 4.31976 6.42364 4.7802C5.91125 5.24064 5.54203 5.83867 5.35996 6.50304L3.50696 13.221C3.87896 11.862 4.10696 11.043 6.44996 10.619Z" fill="url(#appaint4_linear_37743_182742)"/>
<path d="M6.44996 10.619L19.92 8.62904C20.0756 8.60743 20.2214 8.54041 20.3392 8.43635C20.4569 8.3323 20.5414 8.19584 20.582 8.04404L21.972 3.01204C22.0076 2.88517 22.0113 2.75145 21.9826 2.62283C21.9539 2.49422 21.8937 2.37472 21.8075 2.27505C21.7213 2.17537 21.6118 2.09863 21.4886 2.05168C21.3655 2.00474 21.2326 1.98905 21.102 2.00604L8.24996 3.90604C7.56997 4.01632 6.93603 4.31976 6.42364 4.7802C5.91125 5.24064 5.54203 5.83867 5.35996 6.50304L3.50696 13.221C3.87896 11.862 4.10696 11.043 6.44996 10.619Z" fill="url(#appaint5_linear_37743_182742)" fill-opacity="0.4"/>
<path d="M6.45004 10.6191C4.50004 10.9721 4.01504 11.6011 3.69304 12.5851L2.13904 18.2911C2.13904 18.2911 2.63604 16.4741 5.03804 16.0861L14.215 14.7491L14.283 14.7381C14.4465 14.7128 14.5992 14.6405 14.7224 14.5301C14.8456 14.4197 14.934 14.2758 14.977 14.1161L16.342 9.15808L6.45004 10.6191Z" fill="url(#appaint6_linear_37743_182742)"/>
<path d="M6.45004 10.6191C4.50004 10.9721 4.01504 11.6011 3.69304 12.5851L2.13904 18.2911C2.13904 18.2911 2.63604 16.4741 5.03804 16.0861L14.215 14.7491L14.283 14.7381C14.4465 14.7128 14.5992 14.6405 14.7224 14.5301C14.8456 14.4197 14.934 14.2758 14.977 14.1161L16.342 9.15808L6.45004 10.6191Z" fill="url(#appaint7_linear_37743_182742)" fill-opacity="0.2"/>
<path fill-rule="evenodd" clip-rule="evenodd" d="M5.03795 16.086C3.00795 16.414 2.34095 17.759 2.18195 18.168C2.0301 18.5694 1.97199 19.0003 2.01206 19.4276C2.05212 19.8549 2.1893 20.2674 2.41312 20.6337C2.63695 20.9999 2.94149 21.3101 3.30351 21.5407C3.66553 21.7712 4.07544 21.916 4.50195 21.964C4.89795 22.021 5.34595 22.018 5.84795 21.944L8.15495 21.626C8.43865 21.5866 8.70453 21.4647 8.91963 21.2756C9.13472 21.0864 9.28956 20.8383 9.36495 20.562L10.813 15.245L5.03795 16.086Z" fill="url(#appaint8_linear_37743_182742)"/>
</g>
<defs>
<linearGradient id="appaint0_linear_37743_182742" x1="6.47701" y1="22.003" x2="6.47701" y2="14.73" gradientUnits="userSpaceOnUse">
<stop offset="0.056" stop-color="#2AAC94"/>
<stop offset="0.155" stop-color="#239C87"/>
<stop offset="0.372" stop-color="#177E71"/>
<stop offset="0.588" stop-color="#0E6961"/>
<stop offset="0.799" stop-color="#095D57"/>
<stop offset="1" stop-color="#085954"/>
</linearGradient>
<linearGradient id="appaint1_linear_37743_182742" x1="15.667" y1="16.726" x2="8.64401" y2="9.08804" gradientUnits="userSpaceOnUse">
<stop offset="0.042" stop-color="#ABE88E"/>
<stop offset="0.549" stop-color="#2AAA92"/>
<stop offset="0.906" stop-color="#117865"/>
</linearGradient>
<linearGradient id="appaint2_linear_37743_182742" x1="-1.59199" y1="16.355" x2="5.09201" y2="14.076" gradientUnits="userSpaceOnUse">
<stop stop-color="#6AD6F9"/>
<stop offset="1" stop-color="#6AD6F9" stop-opacity="0"/>
</linearGradient>
<linearGradient id="appaint3_linear_37743_182742" x1="3.50696" y1="7.61104" x2="21.297" y2="7.61104" gradientUnits="userSpaceOnUse">
<stop offset="0.043" stop-color="#25FFD4"/>
<stop offset="0.874" stop-color="#55DDB9"/>
</linearGradient>
<linearGradient id="appaint4_linear_37743_182742" x1="3.50696" y1="5.12404" x2="19.532" y2="12.566" gradientUnits="userSpaceOnUse">
<stop stop-color="#6AD6F9"/>
<stop offset="0.23" stop-color="#60E9D0"/>
<stop offset="0.651" stop-color="#6DE9BB"/>
<stop offset="0.994" stop-color="#ABE88E"/>
</linearGradient>
<linearGradient id="appaint5_linear_37743_182742" x1="4.98896" y1="6.51604" x2="13.703" y2="8.44404" gradientUnits="userSpaceOnUse">
<stop stop-color="white" stop-opacity="0"/>
<stop offset="0.459" stop-color="white"/>
<stop offset="1" stop-color="white" stop-opacity="0"/>
</linearGradient>
<linearGradient id="appaint6_linear_37743_182742" x1="7.87904" y1="13.9821" x2="8.08504" y2="7.87108" gradientUnits="userSpaceOnUse">
<stop offset="0.205" stop-color="#063D3B" stop-opacity="0"/>
<stop offset="0.586" stop-color="#063D3B" stop-opacity="0.237"/>
<stop offset="0.872" stop-color="#063D3B" stop-opacity="0.75"/>
</linearGradient>
<linearGradient id="appaint7_linear_37743_182742" x1="1.40504" y1="13.3741" x2="8.85104" y2="14.7741" gradientUnits="userSpaceOnUse">
<stop stop-color="white" stop-opacity="0"/>
<stop offset="0.459" stop-color="white"/>
<stop offset="1" stop-color="white" stop-opacity="0"/>
</linearGradient>
<linearGradient id="appaint8_linear_37743_182742" x1="6.78395" y1="19.988" x2="5.33095" y2="12.884" gradientUnits="userSpaceOnUse">
<stop offset="0.064" stop-color="#063D3B" stop-opacity="0"/>
<stop offset="0.17" stop-color="#063D3B" stop-opacity="0.135"/>
<stop offset="0.562" stop-color="#063D3B" stop-opacity="0.599"/>
<stop offset="0.85" stop-color="#063D3B" stop-opacity="0.9"/>
<stop offset="1" stop-color="#063D3B"/>
</linearGradient>
</defs>
</svg><view id="microsoft_supply_chain_center" viewBox="0 0 96 96"/><svg width="96" height="96" viewBox="0 0 96 96" fill="none" xmlns="http://www.w3.org/2000/svg">
<defs>
<filter id="avfilter0_f_84_430">
<feFlood flood-opacity="0" result="BackgroundImageFix"/>
<feBlend mode="normal" in="SourceGraphic" in2="BackgroundImageFix" result="shape"/>
<feGaussianBlur stdDeviation="0.4" result="effect1_foregroundBlur_84_430"/>
</filter>
<filter id="avfilter1_f_84_430">
<feFlood flood-opacity="0" result="BackgroundImageFix"/>
<feBlend mode="normal" in="SourceGraphic" in2="BackgroundImageFix" result="shape"/>
<feGaussianBlur stdDeviation="4" result="effect1_foregroundBlur_84_430"/>
</filter>
<filter id="avfilter2_f_84_430">
<feFlood flood-opacity="0" result="BackgroundImageFix"/>
<feBlend mode="normal" in="SourceGraphic" in2="BackgroundImageFix" result="shape"/>
<feGaussianBlur stdDeviation="0.4" result="effect1_foregroundBlur_84_430"/>
</filter>
<filter id="avfilter3_f_84_430">
<feFlood flood-opacity="0" result="BackgroundImageFix"/>
<feBlend mode="normal" in="SourceGraphic" in2="BackgroundImageFix" result="shape"/>
<feGaussianBlur stdDeviation="4" result="effect1_foregroundBlur_84_430"/>
</filter>
<linearGradient id="avpaint0_linear_84_430" x1="7.99951" y1="61.5001" x2="40.9995" y2="66.0001" gradientUnits="userSpaceOnUse">
<stop stop-color="#05512D"/>
<stop offset="1" stop-color="#257A2E"/>
</linearGradient>
<linearGradient id="avpaint1_linear_84_430" x1="88" y1="11.9999" x2="46" y2="11.9999" gradientUnits="userSpaceOnUse">
<stop stop-color="#087A47"/>
<stop offset="0.469922" stop-color="#378F3D"/>
<stop offset="1" stop-color="#4AA44E"/>
</linearGradient>
<linearGradient id="avpaint2_linear_84_430" x1="8" y1="9.49993" x2="62.5" y2="9.49994" gradientUnits="userSpaceOnUse">
<stop stop-color="#ABE184"/>
<stop offset="0.218549" stop-color="#8BCD5B"/>
<stop offset="1" stop-color="#5EBA60"/>
</linearGradient>
<linearGradient id="avpaint3_linear_84_430" x1="94.6829" y1="53.1641" x2="32.0316" y2="90.3291" gradientUnits="userSpaceOnUse">
<stop stop-color="#8BCD5B"/>
<stop offset="0.25257" stop-color="#5EBA60"/>
<stop offset="0.710264" stop-color="#378F3D"/>
<stop offset="1" stop-color="#087A47"/>
</linearGradient>
<clipPath id="avclip0_84_430">
<rect width="96" height="96" fill="white"/>
</clipPath>
<clipPath id="avclip1_84_430">
<rect width="96" height="96" fill="white"/>
</clipPath>
</defs>
<g clip-path="url(#avclip0_84_430)">
<g clip-path="url(#avclip1_84_430)">
<mask id="avmask0_84_430" style="mask-type:alpha" maskUnits="userSpaceOnUse" x="8" y="3" width="80" height="91">
<path fill-rule="evenodd" clip-rule="evenodd" d="M82.661 17.7426L62.2006 4.08883C60.8559 3.19149 59.1033 3.19177 57.7589 4.08951L47.9478 10.6411L38.1829 4.13668C36.8493 3.24837 35.1143 3.24163 33.7738 4.11956L13.4253 17.4467C10.0398 19.664 8 23.4384 8 27.4853V65.0907C8 65.0596 8.00012 65.0285 8.00036 64.9973C8.02939 68.9772 10.0304 72.6862 13.3455 74.8954L14.0845 75.3878C13.9204 75.2898 13.7582 75.1875 13.5978 75.081L10.4369 72.9813L34.6066 89.0793C42.7091 94.476 53.269 94.4433 61.3381 88.9967L82.7137 74.5682C85.9567 72.3791 87.9249 68.7496 87.9979 64.8469C87.9993 64.9218 88 64.9968 88 65.0719V27.7241C88 23.7138 85.9967 19.9686 82.661 17.7426ZM69.759 46.4901L48.0093 31.9919L26.2541 46.4977C26.387 46.5793 26.5192 46.6639 26.6507 46.7514L48.0236 60.9821L69.759 46.4901Z" fill="white"/>
</mask>
<g mask="url(#avmask0_84_430)">
<path d="M33.151 88.0943L13.345 74.8956C10.0055 72.6702 7.99953 68.9227 7.99955 64.9097L7.99961 56.74C7.99967 47.1589 18.6751 41.4416 26.6502 46.7516L69.2329 75.1044C71.6073 76.6853 71.6111 80.1724 69.2401 81.7585L59.805 88.0705C51.7417 93.4647 41.2239 93.4741 33.151 88.0943Z" fill="url(#avpaint0_linear_84_430)"/>
<path d="M62.2006 4.0888L82.661 17.7425C85.9967 19.9686 88 23.7138 88 27.7241V65.0719C88 61.0594 85.9946 57.3125 82.6559 55.0869L36.9664 24.6308C34.5924 23.0483 34.5909 19.5604 36.9636 17.976L57.7589 4.08949C59.1033 3.19174 60.8559 3.19147 62.2006 4.0888Z" fill="url(#avpaint1_linear_84_430)"/>
<g filter="url(#avfilter0_f_84_430)">
<path d="M33.7738 4.51955L13.4253 17.8467C10.0398 20.064 8 23.8384 8 27.8853V65.4907C8 61.4788 10.0049 57.7323 13.3429 55.5066L59.0035 25.0613C61.3787 23.4776 61.3779 19.9869 59.0019 18.4042L38.1829 4.53668C36.8493 3.64837 35.1143 3.64163 33.7738 4.51955Z" fill="black" fill-opacity="0.24"/>
</g>
<g filter="url(#avfilter1_f_84_430)">
<path d="M33.7738 6.11953L13.4253 19.4467C10.0398 21.664 8 25.4384 8 29.4853V67.0907C8 63.0788 10.0049 59.3323 13.3429 57.1066L59.0035 26.6613C61.3787 25.0775 61.3779 21.5868 59.0019 20.0042L38.1829 6.13666C36.8493 5.24834 35.1143 5.24161 33.7738 6.11953Z" fill="black" fill-opacity="0.32"/>
</g>
<path d="M33.7738 4.11953L13.4253 17.4467C10.0398 19.664 8 23.4384 8 27.4853V65.0907C8 61.0788 10.0049 57.3323 13.3429 55.1066L59.0035 24.6613C61.3787 23.0775 61.3779 19.5868 59.0019 18.0042L38.1829 4.13666C36.8493 3.24834 35.1143 3.24161 33.7738 4.11953Z" fill="url(#avpaint2_linear_84_430)"/>
<g filter="url(#avfilter2_f_84_430)">
<path d="M61.3381 89.3968L82.7137 74.9683C86.019 72.7372 88 69.0099 88 65.0221V28.3064C88 32.3184 85.995 36.065 82.6569 38.2906L26.8946 75.4698C22.8698 78.1533 17.6272 78.1578 13.5978 75.4811L10.4369 73.3814L34.6066 89.4794C42.7091 94.8761 53.269 94.8435 61.3381 89.3968Z" fill="black" fill-opacity="0.24"/>
</g>
<g filter="url(#avfilter3_f_84_430)">
<path d="M61.3381 90.9968L82.7137 76.5683C86.019 74.3372 88 70.6099 88 66.6221V29.9063C88 33.9183 85.995 37.6649 82.6569 39.8906L26.8946 77.0698C22.8698 79.7533 17.6272 79.7578 13.5978 77.0811L10.4369 74.9814L34.6066 91.0794C42.7091 96.476 53.269 96.4434 61.3381 90.9968Z" fill="black" fill-opacity="0.32"/>
</g>
<path d="M61.3381 88.9968L82.7137 74.5683C86.019 72.3372 88 68.6099 88 64.6221V27.9063C88 31.9183 85.995 35.6649 82.6569 37.8906L26.8946 75.0698C22.8698 77.7533 17.6272 77.7578 13.5978 75.0811L10.4369 72.9814L34.6066 89.0794C42.7091 94.476 53.269 94.4434 61.3381 88.9968Z" fill="url(#avpaint3_linear_84_430)"/>
</g>
</g>
</g>
</svg><view id="onelake_colored" viewBox="192 64 32 32"/><svg width="32" height="32" viewBox="0 0 32 32" fill="none" x="192" y="64" xmlns="http://www.w3.org/2000/svg">
<g clip-path="url(#aqclip0_35749_112517)">
<path d="M14.7459 21.9861C18.5884 19.7676 19.8531 14.7644 17.5706 10.8111C15.2882 6.85787 10.323 5.45153 6.48047 7.67C2.63797 9.88846 1.37328 14.8917 3.6557 18.8449C5.93813 22.7982 10.9034 24.2046 14.7459 21.9861Z" fill="url(#aqpaint0_linear_35749_112517)"/>
<path d="M19.7617 10.9035C21.7567 8.9079 21.709 5.62584 19.6553 3.57286C17.6016 1.51987 14.3196 1.47339 12.3246 3.46903C10.3297 5.46467 10.3773 8.74673 12.431 10.7997C14.4847 12.8527 17.7668 12.8992 19.7617 10.9035Z" fill="url(#aqpaint1_linear_35749_112517)"/>
<path d="M17.609 29.4642C24.2529 29.4642 29.6389 24.0783 29.6389 17.4343C29.6389 10.7903 24.2529 5.40436 17.609 5.40436C10.965 5.40436 5.57904 10.7903 5.57904 17.4343C5.57904 24.0783 10.965 29.4642 17.609 29.4642Z" fill="url(#aqpaint2_radial_35749_112517)"/>
<path fill-rule="evenodd" clip-rule="evenodd" d="M12.8958 2.97058C5.83344 7.33316 3.36523 16.5216 7.4236 23.8709C7.6967 24.3687 7.99399 24.8457 8.31548 25.2986L8.63005 25.347L15.6095 27.6769L22.2398 23.2348C21.1301 23.2694 16.5117 20.6491 13.4939 14.921C9.71206 7.74453 11.2711 4.42938 12.9028 2.97058H12.8958Z" fill="url(#aqpaint3_radial_35749_112517)"/>
<path fill-rule="evenodd" clip-rule="evenodd" d="M12.8958 2.97058C5.83344 7.33316 3.36523 16.5216 7.4236 23.8709C7.6967 24.3687 7.99399 24.8457 8.31548 25.2986L8.63005 25.347L15.6095 27.6769L22.2398 23.2348C21.1301 23.2694 16.5117 20.6491 13.4939 14.921C9.71206 7.74453 11.2711 4.42938 12.9028 2.97058H12.8958Z" fill="url(#aqpaint4_radial_35749_112517)" fill-opacity="0.2"/>
<path fill-rule="evenodd" clip-rule="evenodd" d="M26.759 25.2465C27.9793 23.8188 28.8573 22.1111 29.3067 20.2686C28.1107 16.8532 23.2987 15.8922 20.6645 18.5643C18.6423 20.6143 16.5405 22.3358 14.9607 22.6434C5.82414 24.4376 1.94648 16.8601 2.60579 13.4412C2.27047 15.18 2.26356 17.0122 2.64036 18.8547C4.17867 26.3907 11.5315 31.2511 19.0675 29.7128C21.3974 29.2357 23.4715 28.2056 25.1792 26.7848C25.1792 26.7848 25.2069 26.764 25.2172 26.7537C25.7703 26.2904 26.2854 25.7857 26.759 25.243V25.2465Z" fill="url(#aqpaint5_radial_35749_112517)"/>
</g>
<defs>
<linearGradient id="aqpaint0_linear_35749_112517" x1="26.8609" y1="11.0836" x2="2.30771" y2="16.7452" gradientUnits="userSpaceOnUse">
<stop offset="0.2" stop-color="#028FDC"/>
<stop offset="0.51" stop-color="#0078D4"/>
<stop offset="1" stop-color="#0B315B"/>
</linearGradient>
<linearGradient id="aqpaint1_linear_35749_112517" x1="28.602" y1="18.6947" x2="12.3809" y2="3.82834" gradientUnits="userSpaceOnUse">
<stop offset="0.04" stop-color="#028FDC"/>
<stop offset="0.46" stop-color="#0078D4"/>
<stop offset="1" stop-color="#0B315B"/>
</linearGradient>
<radialGradient id="aqpaint2_radial_35749_112517" cx="0" cy="0" r="1" gradientUnits="userSpaceOnUse" gradientTransform="translate(24.9382 -0.244725) rotate(134.83) scale(18.1322 23.3919)">
<stop offset="0.39" stop-color="#028FDC"/>
<stop offset="0.59" stop-color="#0078D4"/>
<stop offset="1" stop-color="#1A508B"/>
</radialGradient>
<radialGradient id="aqpaint3_radial_35749_112517" cx="0" cy="0" r="1" gradientUnits="userSpaceOnUse" gradientTransform="translate(21.0857 10.5693) rotate(139.44) scale(16.3171 20.1329)">
<stop offset="0.46" stop-color="#40D9FA"/>
<stop offset="0.9" stop-color="#0095E6"/>
</radialGradient>
<radialGradient id="aqpaint4_radial_35749_112517" cx="0" cy="0" r="1" gradientUnits="userSpaceOnUse" gradientTransform="translate(12.0832 7.08634) rotate(96.16) scale(17.3143 12.2968)">
<stop offset="0.77" stop-opacity="0"/>
<stop offset="1"/>
</radialGradient>
<radialGradient id="aqpaint5_radial_35749_112517" cx="0" cy="0" r="1" gradientUnits="userSpaceOnUse" gradientTransform="translate(20.3358 19.8735) rotate(85.97) scale(26.9434 49.1305)">
<stop offset="0.1" stop-color="#BDF5FF"/>
<stop offset="0.47" stop-color="#40D9FA"/>
</radialGradient>
<clipPath id="aqclip0_35749_112517">
<rect width="32" height="32" fill="white"/>
</clipPath>
</defs>
</svg><view id="power_automate" viewBox="96 0 96 96"/><svg width="96" height="96" viewBox="0 0 96 96" fill="none" x="96" xmlns="http://www.w3.org/2000/svg">
<g clip-path="url(#arclip0)">
<g clip-path="url(#arclip1)">
<mask id="armask0" mask-type="alpha" maskUnits="userSpaceOnUse" x="-1" y="10" width="97" height="76">
<path d="M61.2116 10C62.3496 10 63.4337 10.4847 64.1925 11.3328L94.6136 45.3328C95.9723 46.8514 95.9723 49.1486 94.6136 50.6672L64.1925 84.6672C63.4337 85.5153 62.3496 86 61.2116 86H3.94634C0.488777 86 -1.34012 81.9095 0.965366 79.3328L29 48L0.965366 16.6672C-1.34012 14.0905 0.488777 10 3.94634 10H61.2116Z" fill="white"/>
</mask>
<g mask="url(#armask0)">
<path d="M63 10L29 48L-5 10H63Z" fill="url(#arpaint0_linear)"/>
<g filter="url(#arfilter0_f)">
<path d="M63 10.4L-5 86.4H63L97 48.4L63 10.4Z" fill="black" fill-opacity="0.24"/>
</g>
<g filter="url(#arfilter1_f)">
<path d="M63 12L-5 88H63L97 50L63 12Z" fill="black" fill-opacity="0.32"/>
</g>
<path d="M-5 86L63 10L97 48L63 86H-5Z" fill="url(#arpaint1_linear)"/>
<path d="M-5 86L63 10L80 29L29 86H-5Z" fill="url(#arpaint2_linear)"/>
</g>
</g>
</g>
<defs>
<filter id="arfilter0_f" x="-5.8" y="9.60002" width="103.6" height="77.6" filterUnits="userSpaceOnUse" color-interpolation-filters="sRGB">
<feFlood flood-opacity="0" result="BackgroundImageFix"/>
<feBlend mode="normal" in="SourceGraphic" in2="BackgroundImageFix" result="shape"/>
<feGaussianBlur stdDeviation="0.4" result="effect1_foregroundBlur"/>
</filter>
<filter id="arfilter1_f" x="-13" y="4" width="118" height="92" filterUnits="userSpaceOnUse" color-interpolation-filters="sRGB">
<feFlood flood-opacity="0" result="BackgroundImageFix"/>
<feBlend mode="normal" in="SourceGraphic" in2="BackgroundImageFix" result="shape"/>
<feGaussianBlur stdDeviation="4" result="effect1_foregroundBlur"/>
</filter>
<linearGradient id="arpaint0_linear" x1="43" y1="55" x2="29" y2="10" gradientUnits="userSpaceOnUse">
<stop stop-color="#0D36A5"/>
<stop offset="1" stop-color="#1152D4"/>
</linearGradient>
<linearGradient id="arpaint1_linear" x1="46" y1="10" x2="46" y2="86" gradientUnits="userSpaceOnUse">
<stop stop-color="#84CAFF"/>
<stop offset="1" stop-color="#61B1FB"/>
</linearGradient>
<linearGradient id="arpaint2_linear" x1="37.5" y1="10" x2="37.5" y2="86" gradientUnits="userSpaceOnUse">
<stop stop-color="#3B90F5"/>
<stop offset="1" stop-color="#2A78EE"/>
</linearGradient>
<clipPath id="arclip0">
<rect width="96" height="96" fill="white"/>
</clipPath>
<clipPath id="arclip1">
<rect width="96" height="96" fill="white"/>
</clipPath>
</defs>
</svg><view id="powerbi" viewBox="20 173 20 20"/><svg width="20" height="20" viewBox="0 0 20 20" fill="none" x="20" y="173" xmlns="http://www.w3.org/2000/svg">
<g clip-path="url(#asclip0_2135_196676)">
<mask id="asmask0_2135_196676" style="mask-type:alpha" maskUnits="userSpaceOnUse" x="2" y="0" width="16" height="20">
<path d="M10.8333 0.833333C10.8333 0.61232 10.9211 0.400358 11.0774 0.244078C11.2337 0.0877974 11.4457 0 11.6667 0L16.6667 0C16.8877 0 17.0996 0.0877974 17.2559 0.244078C17.4122 0.400358 17.5 0.61232 17.5 0.833333V19.1667C17.5 19.3877 17.4122 19.5996 17.2559 19.7559C17.0996 19.9122 16.8877 20 16.6667 20H3.33333C3.11232 20 2.90036 19.9122 2.74408 19.7559C2.5878 19.5996 2.5 19.3877 2.5 19.1667V10.8333C2.5 10.6123 2.5878 10.4004 2.74408 10.2441C2.90036 10.0878 3.11232 10 3.33333 10H6.66667V5.83333C6.66667 5.61232 6.75446 5.40036 6.91074 5.24408C7.06702 5.0878 7.27899 5 7.5 5H10.8333V0.833333Z" fill="white"/>
</mask>
<g mask="url(#asmask0_2135_196676)">
<path d="M17.5 0V20H10.8333V0H17.5Z" fill="url(#aspaint0_linear_2135_196676)"/>
<g filter="url(#asfilter0_f_2135_196676)">
<path d="M13.3334 5.91671V20.0834H6.66669V5.08337H12.5C12.721 5.08337 12.933 5.17117 13.0893 5.32745C13.2456 5.48373 13.3334 5.69569 13.3334 5.91671Z" fill="black" fill-opacity="0.2"/>
</g>
<g filter="url(#asfilter1_f_2135_196676)">
<path d="M13.3334 6.24996V20.4166H6.66669V5.41663H12.5C12.721 5.41663 12.933 5.50442 13.0893 5.6607C13.2456 5.81698 13.3334 6.02895 13.3334 6.24996Z" fill="black" fill-opacity="0.18"/>
</g>
<path d="M13.3334 5.83333V20H6.66669V5H12.5C12.721 5 12.933 5.0878 13.0893 5.24408C13.2456 5.40036 13.3334 5.61232 13.3334 5.83333Z" fill="url(#aspaint1_linear_2135_196676)"/>
<path d="M2.5 10V20H9.16667V10.8333C9.16667 10.6123 9.07887 10.4004 8.92259 10.2441C8.76631 10.0878 8.55435 10 8.33333 10H2.5Z" fill="url(#aspaint2_linear_2135_196676)"/>
</g>
</g>
<defs>
<filter id="asfilter0_f_2135_196676" x="6.26669" y="4.68337" width="7.46669" height="15.8" filterUnits="userSpaceOnUse" color-interpolation-filters="sRGB">
<feFlood flood-opacity="0" result="BackgroundImageFix"/>
<feBlend mode="normal" in="SourceGraphic" in2="BackgroundImageFix" result="shape"/>
<feGaussianBlur stdDeviation="0.2" result="effect1_foregroundBlur_2135_196676"/>
</filter>
<filter id="asfilter1_f_2135_196676" x="2.66669" y="1.41663" width="14.6667" height="23" filterUnits="userSpaceOnUse" color-interpolation-filters="sRGB">
<feFlood flood-opacity="0" result="BackgroundImageFix"/>
<feBlend mode="normal" in="SourceGraphic" in2="BackgroundImageFix" result="shape"/>
<feGaussianBlur stdDeviation="2" result="effect1_foregroundBlur_2135_196676"/>
</filter>
<linearGradient id="aspaint0_linear_2135_196676" x1="9.72206" y1="-1.22525e-07" x2="18.5135" y2="18.6348" gradientUnits="userSpaceOnUse">
<stop stop-color="#E6AD10"/>
<stop offset="1" stop-color="#C87E0E"/>
</linearGradient>
<linearGradient id="aspaint1_linear_2135_196676" x1="6.66606" y1="5" x2="14.0596" y2="19.3387" gradientUnits="userSpaceOnUse">
<stop stop-color="#F6D751"/>
<stop offset="1" stop-color="#E6AD10"/>
</linearGradient>
<linearGradient id="aspaint2_linear_2135_196676" x1="2.49937" y1="10" x2="6.585" y2="19.6829" gradientUnits="userSpaceOnUse">
<stop stop-color="#F9E589"/>
<stop offset="1" stop-color="#F6D751"/>
</linearGradient>
<clipPath id="asclip0_2135_196676">
<rect width="20" height="20" fill="white"/>
</clipPath>
</defs>
</svg><view id="powerbi_file_20_regular" viewBox="40 173 20 20"/><svg fill="none" viewBox="0 0 20 20" width="20" height="20" x="40" y="173" xmlns="http://www.w3.org/2000/svg"><path fill="#fff" d="M18 7h-2.5c-.827 0-1.5-.673-1.5-1.5V2H6v16h12V7z"/><path fill="#fff" d="M18 6v-.293l-3-3V5.5c0 .275.225.5.5.5H18z"/><path fill="#605E5C" fill-rule="evenodd" d="M18.707 5 15 1.293A1 1 0 0 0 14.293 1H6a1 1 0 0 0-1 1v16a1 1 0 0 0 1 1h12a1 1 0 0 0 1-1V5.707A1 1 0 0 0 18.707 5zM18 5.707V6h-2.5a.501.501 0 0 1-.5-.5V2.707l3 3zM6 2.2v15.6c0 .11.09.2.2.2h11.6a.2.2 0 0 0 .2-.2V7h-2.5A1.5 1.5 0 0 1 14 5.5V2H6.2a.2.2 0 0 0-.2.2z" clip-rule="evenodd" opacity=".64"/><path fill="#C8C6C4" d="M9 16h6.417c.322 0 .583-.224.583-.5s-.26-.5-.583-.5H9v1zm1.017-3.79 2.656-2.56-.347-.36-2.656 2.56.347.36zm3.29-2.338.98 1.6.426-.262-.98-1.599-.426.261z"/><path fill="#C8C6C4" d="M13.003 10a.997.997 0 1 0 0-1.994.997.997 0 0 0 0 1.994zM15 13a.968.968 0 1 0 0-1.936.968.968 0 0 0 0 1.935z"/><path fill="#F2C80F" d="M2 16h8a1 1 0 0 0 1-1V7a1 1 0 0 0-1-1H2a1 1 0 0 0-1 1v8a1 1 0 0 0 1 1z"/><path fill="#333" fill-rule="evenodd" d="M7.5 14a.5.5 0 0 1-.5-.5v-5a.5.5 0 0 1 1 0v5a.5.5 0 0 1-.5.5zm-2 0a.5.5 0 0 1-.5-.5v-2a.5.5 0 0 1 1 0v2a.5.5 0 0 1-.5.5zM3 13.5a.5.5 0 0 0 1 0v-3a.5.5 0 0 0-1 0v3z" clip-rule="evenodd"/></svg><view id="storage" viewBox="0 96 77 77"/><svg width="77" height="77" viewBox="0 0 77 77" fill="none" y="96" xmlns="http://www.w3.org/2000/svg">
<path d="M3.0809 24.6985H74.8587V64.7252C74.8587 65.3634 74.6051 65.9756 74.1538 66.4269C73.7024 66.8783 73.0903 67.1318 72.452 67.1318H5.48757C4.84928 67.1318 4.23714 66.8783 3.7858 66.4269C3.33446 65.9756 3.0809 65.3634 3.0809 64.7252V24.6985V24.6985Z" fill="url(#aupaint0_linear_17333_18217)"/>
<path d="M5.48757 9.41406H72.452C73.0903 9.41406 73.7024 9.66762 74.1538 10.119C74.6051 10.5703 74.8587 11.1824 74.8587 11.8207V24.6985H3.0809V11.7785C3.09197 11.1476 3.35041 10.5462 3.80055 10.104C4.2507 9.66172 4.85653 9.41397 5.48757 9.41406V9.41406Z" fill="#37C2B1"/>
<path d="M12.8342 29.3429H65.0631C65.3581 29.3538 65.6373 29.4787 65.842 29.6913C66.0468 29.9039 66.1611 30.1877 66.1609 30.4829V36.394C66.1611 36.6891 66.0468 36.9729 65.842 37.1855C65.6373 37.3981 65.3581 37.523 65.0631 37.534H12.8342C12.5392 37.523 12.26 37.3981 12.0553 37.1855C11.8505 36.9729 11.7362 36.6891 11.7364 36.394V30.4829C11.7362 30.1877 11.8505 29.9039 12.0553 29.6913C12.26 29.4787 12.5392 29.3538 12.8342 29.3429V29.3429Z" fill="white"/>
<path d="M12.8765 41.123H65.1054C65.4003 41.1339 65.6796 41.2588 65.8843 41.4715C66.0891 41.6841 66.2034 41.9678 66.2031 42.263V48.2163C66.2034 48.5115 66.0891 48.7952 65.8843 49.0079C65.6796 49.2205 65.4003 49.3454 65.1054 49.3563H12.8765C12.5815 49.3454 12.3023 49.2205 12.0975 49.0079C11.8928 48.7952 11.7785 48.5115 11.7787 48.2163V42.4741C11.748 42.3112 11.7531 42.1437 11.7938 41.983C11.8345 41.8224 11.9097 41.6725 12.0142 41.5439C12.1187 41.4153 12.25 41.311 12.3989 41.2383C12.5478 41.1656 12.7108 41.1263 12.8765 41.123Z" fill="#37C2B1"/>
<path d="M12.8764 53.0295H65.1053C65.4003 53.0404 65.6795 53.1653 65.8843 53.3779C66.089 53.5906 66.2033 53.8743 66.2031 54.1695V60.1228C66.2033 60.418 66.089 60.7017 65.8843 60.9144C65.6795 61.127 65.4003 61.2519 65.1053 61.2628H12.8764C12.5815 61.2519 12.3023 61.127 12.0975 60.9144C11.8928 60.7017 11.7785 60.418 11.7787 60.1228V54.1695C11.7785 53.8743 11.8928 53.5906 12.0975 53.3779C12.3023 53.1653 12.5815 53.0404 12.8764 53.0295V53.0295Z" fill="#258277"/>
<defs>
<linearGradient id="aupaint0_linear_17333_18217" x1="38.9698" y1="67.0896" x2="38.9698" y2="24.6985" gradientUnits="userSpaceOnUse">
<stop stop-color="#B3B3B3"/>
<stop offset="0.26" stop-color="#C1C1C1"/>
<stop offset="1" stop-color="#E6E6E6"/>
</linearGradient>
</defs>
</svg><view id="synapse" viewBox="60 173 20 20"/><svg width="20" height="20" viewBox="0 0 20 20" fill="none" x="60" y="173" xmlns="http://www.w3.org/2000/svg">
<path d="M10.0001 0L1.27783 4.98889V14.9889L10.0001 20L18.7223 15.0111V5.01111L10.0001 0ZM17.1112 13.9667L10.0001 18.0778L2.88894 14.0111V5.97778L10.0001 1.86667L17.1112 5.98889V13.9667Z" fill="#0078D4"/>
<path d="M10.0001 0L1.27783 4.98889L2.88894 5.97778L10.0001 1.86667L17.1112 5.97778L18.7223 4.98889L10.0001 0Z" fill="url(#awpaint0_linear_1474_167678)"/>
<path d="M12.5778 12.8777C12.28 11.6425 11.5045 10.5757 10.4215 9.9113C9.33842 9.24689 8.0361 9.03901 6.80002 9.33323L6.41113 7.71101C8.07743 7.31689 9.83203 7.59971 11.2901 8.49746C12.7481 9.39521 13.7906 10.8346 14.1889 12.4999L12.5778 12.8777Z" fill="#50E6FF"/>
<path d="M14.1556 11.6333C14.0464 11.4478 13.869 11.3125 13.6612 11.2565C13.4535 11.2004 13.2321 11.2279 13.0444 11.3333L4.01111 16.5333L5.67778 17.4999L13.8556 12.7777C14.0455 12.6643 14.1834 12.4808 14.2395 12.2668C14.2956 12.0528 14.2654 11.8253 14.1556 11.6333Z" fill="#50E6FF"/>
<path d="M14.3445 2.48877L6.1445 7.2221C5.96327 7.33505 5.83156 7.51247 5.7759 7.71864C5.72023 7.9248 5.74475 8.1444 5.8445 8.33321C5.91839 8.45894 6.02397 8.56308 6.15071 8.63522C6.27744 8.70736 6.42089 8.74498 6.56672 8.74433C6.7115 8.74686 6.85404 8.70833 6.97783 8.63321L16.0223 3.41099L14.3445 2.48877Z" fill="#50E6FF"/>
<path d="M13.4335 14.1111C14.5687 14.1111 15.489 13.1908 15.489 12.0556C15.489 10.9203 14.5687 10 13.4335 10C12.2982 10 11.3779 10.9203 11.3779 12.0556C11.3779 13.1908 12.2982 14.1111 13.4335 14.1111Z" fill="url(#awpaint1_linear_1474_167678)"/>
<path d="M6.56691 10C7.70216 10 8.62246 9.07972 8.62246 7.94447C8.62246 6.80922 7.70216 5.88892 6.56691 5.88892C5.43166 5.88892 4.51135 6.80922 4.51135 7.94447C4.51135 9.07972 5.43166 10 6.56691 10Z" fill="url(#awpaint2_linear_1474_167678)"/>
<defs>
<linearGradient id="awpaint0_linear_1474_167678" x1="10.0001" y1="5.97778" x2="10.0001" y2="0" gradientUnits="userSpaceOnUse">
<stop offset="0.2" stop-color="#005BA1"/>
<stop offset="1" stop-color="#0078D4"/>
</linearGradient>
<linearGradient id="awpaint1_linear_1474_167678" x1="13.4335" y1="14.1111" x2="13.4335" y2="10.0111" gradientUnits="userSpaceOnUse">
<stop stop-color="#198AB3"/>
<stop offset="0.35" stop-color="#32BEDD"/>
<stop offset="0.8" stop-color="#50E6FF"/>
</linearGradient>
<linearGradient id="awpaint2_linear_1474_167678" x1="6.56691" y1="10" x2="6.56691" y2="5.90003" gradientUnits="userSpaceOnUse">
<stop stop-color="#198AB3"/>
<stop offset="0.35" stop-color="#32BEDD"/>
<stop offset="0.8" stop-color="#50E6FF"/>
</linearGradient>
</defs>
</svg></svg>